<?xml version="1.0" encoding="utf-8"?>
<!-- Generator: Adobe Illustrator 26.0.1, SVG Export Plug-In . SVG Version: 6.00 Build 0)  -->
<svg version="1.1" id="Livello_1" xmlns="http://www.w3.org/2000/svg" xmlns:xlink="http://www.w3.org/1999/xlink" x="0px" y="0px"
	 width="116.1px" height="82.7px" viewBox="0 0 116.1 82.7" style="enable-background:new 0 0 116.1 82.7;" xml:space="preserve">
<style type="text/css">
	.st0{enable-background:new    ;}
	.st1{fill:#E6E3D9;}
	.st2{fill:#BAB8B1;}
	.st3{fill:#9D9B95;}
	.st4{fill:#808080;}
	.st5{fill:#919191;}
	.st6{fill:#ACACAC;}
	.st7{fill:#838383;}
	.st8{display:none;opacity:0.3;}
	.st9{display:inline;fill:#F18809;}
	.st10{display:inline;fill:#FFCC00;}
	.st11{display:inline;fill:#ACACAC;}
	.st12{display:none;}
	.st13{fill:none;}
	.st14{fill:#333333;}
	.st15{display:inline;}
	.st16{fill:#FFFFFF;}
	.st17{display:inline;enable-background:new    ;}
</style>
<g id="MNOINT-base">
	<g>
		<g class="st0">
			<g>
				<polygon class="st1" points="84.2,8.8 112.6,61 36.2,77.3 7.8,25.1 				"/>
			</g>
			<g>
				<polygon class="st2" points="112.6,61 112.2,63.1 35.8,79.4 36.2,77.3 				"/>
			</g>
			<g>
				<polygon class="st3" points="36.2,77.3 35.8,79.4 7.4,27.2 7.8,25.1 				"/>
			</g>
		</g>
	</g>
</g>
<g id="MNOINT_x5F_negozi3d">
	<g>
		<g class="st0">
			<g>
				<polygon class="st4" points="66.3,23.5 65.9,25.5 64.3,22.6 64.7,20.5 				"/>
			</g>
			<g>
				<polygon class="st4" points="48.2,26.2 47.8,28.3 46.7,26.3 47.1,24.2 				"/>
			</g>
			<g>
				<polygon class="st4" points="53,35 52.6,37.1 47.8,28.3 48.2,26.2 				"/>
			</g>
			<g>
				<polygon class="st5" points="59.5,33.6 59.1,35.7 52.6,37.1 53,35 				"/>
			</g>
			<g>
				<polygon class="st5" points="84.7,28.3 84.4,30.4 65.3,39.8 65.6,37.7 				"/>
			</g>
			<g>
				<polygon class="st5" points="65.6,37.7 65.3,39.8 64.7,40 65.1,37.9 				"/>
			</g>
			<g>
				<polygon class="st5" points="65.6,37.7 65.3,39.8 64.7,40 65.1,37.9 				"/>
			</g>
			<g>
				<polygon class="st6" points="64.7,20.5 78.8,17.5 84.7,28.3 65.6,37.7 65.1,37.9 59.5,33.6 53,35 48.2,26.2 47.1,24.2 58,21.9 
					59.7,24.9 66.3,23.5 				"/>
			</g>
			<g>
				<polygon class="st7" points="65.1,37.9 64.7,40 59.1,35.7 59.5,33.6 				"/>
			</g>
			<g>
				<polygon class="st4" points="69,45 68.7,47.1 65,40.3 65.4,38.2 				"/>
			</g>
			<g>
				<polygon class="st6" points="87.5,28 93.3,43.8 91.7,56.2 71,60.6 65.2,49.9 69,45 65.4,38.2 85.1,28.5 				"/>
			</g>
			<g>
				<polygon class="st4" points="71,60.6 70.7,62.7 64.8,51.9 65.2,49.9 				"/>
			</g>
			<g>
				<polygon class="st5" points="91.7,56.2 91.3,58.2 70.7,62.7 71,60.6 				"/>
			</g>
		</g>
		<g class="st0">
			<g>
				<polygon class="st6" points="47.9,26.7 52.5,35.1 48,36.1 43.3,27.6 				"/>
			</g>
			<g>
				<polygon class="st5" points="52.5,35.1 52.2,37.2 47.6,38.2 48,36.1 				"/>
			</g>
			<g>
				<polygon class="st4" points="48,36.1 47.6,38.2 43,29.7 43.3,27.6 				"/>
			</g>
		</g>
		<g class="st0">
			<g>
				<polygon class="st5" points="40.5,36.9 40.2,39 38.1,39.4 38.5,37.3 				"/>
			</g>
			<g>
				<polygon class="st6" points="36.7,29.8 40.5,36.9 38.5,37.3 39.9,46.9 29.8,49 21.1,33.1 				"/>
			</g>
			<g>
				<polygon class="st5" points="39.9,46.9 39.6,49 29.4,51.1 29.8,49 				"/>
			</g>
			<g>
				<polygon class="st4" points="29.8,49 29.4,51.1 20.8,35.2 21.1,33.1 				"/>
			</g>
		</g>
		<g class="st0">
			<g>
				<polygon class="st6" points="40.1,47.2 48.7,53.3 64.7,50 70.6,60.7 39.7,67.2 30,49.4 				"/>
			</g>
			<g>
				<polygon class="st5" points="70.6,60.7 70.2,62.7 39.3,69.3 39.7,67.2 				"/>
			</g>
			<g>
				<polygon class="st4" points="39.7,67.2 39.3,69.3 29.6,51.5 30,49.4 				"/>
			</g>
		</g>
	</g>
	<g id="_x3C_Gruppo_x3E_" class="st8">
		<polygon id="n34" class="st9" points="64.7,20.5 78.8,17.5 84.7,28.3 65.6,37.7 65.1,37.9 59.5,33.6 53,35 48.2,26.2 47.1,24.2 
			58,21.9 59.7,24.9 66.3,23.5 		"/>
		<polygon id="n33" class="st10" points="87.5,28 93.3,43.8 91.7,56.2 71,60.6 65.2,49.9 69,45 65.4,38.2 85.1,28.5 		"/>
		<polygon id="n35" class="st11" points="47.9,26.7 52.5,35.1 48,36.1 43.3,27.6 		"/>
		<polygon id="n36_2_" class="st9" points="36.7,29.8 40.5,36.9 38.5,37.3 39.9,46.9 29.8,49 21.1,33.1 		"/>
		<polygon id="n30-31-32" class="st9" points="40.1,47.2 48.7,53.3 64.7,50 70.6,60.7 39.7,67.2 30,49.4 		"/>
	</g>
</g>
<g id="active-ristorazione" class="st12">
	<polygon id="n33_1_" class="st10" points="87.5,28 93.3,43.8 91.7,56.2 71,60.6 65.2,49.9 69,45 65.4,38.2 85.1,28.5 	"/>
</g>
<g id="active-servizi" class="st12">
	<polygon id="n34_1_" class="st9" points="64.7,20.5 78.8,17.5 84.7,28.3 65.6,37.7 65.1,37.9 59.5,33.6 53,35 48.2,26.2 47.1,24.2 
		58,21.9 59.7,24.9 66.3,23.5 	"/>
	<polygon id="n30-31-32_1_" class="st9" points="40.1,47.2 48.7,53.3 64.7,50 70.6,60.7 39.7,67.2 30,49.4 	"/>
	<polygon id="n36_1_" class="st9" points="36.7,29.8 40.5,36.9 38.5,37.3 39.9,46.9 29.8,49 21.1,33.1 	"/>
</g>
<g id="MLOC-shop">
	<polygon id="n34_2_" class="st13" points="64.7,20.5 78.8,17.5 84.7,28.3 65.6,37.7 65.1,37.9 59.5,33.6 53,35 48.2,26.2 
		47.1,24.2 58,21.9 59.7,24.9 66.3,23.5 	"/>
	<polygon id="n33_2_" class="st13" points="87.5,28 93.3,43.8 91.7,56.2 71,60.6 65.2,49.9 69,45 65.4,38.2 85.1,28.5 	"/>
	<polygon id="n35_2_" class="st13" points="47.9,26.7 52.5,35.1 48,36.1 43.3,27.6 	"/>
	<polygon id="n36" class="st13" points="36.7,29.8 40.5,36.9 38.5,37.3 39.9,46.9 29.8,49 21.1,33.1 	"/>
	<polygon id="n30-31-32_2_" class="st13" points="40.1,47.2 48.7,53.3 64.7,50 70.6,60.7 39.7,67.2 30,49.4 	"/>
</g>
<g id="MNOINT-ancore">
	<g>
		<g>
			<path class="st14" d="M5.9,14.9c1.6-0.3,2.9,0.1,3.4,1.2c0.6,1,0,1.9-1.6,2.2l-1.2,0.3l0.8,1.5l-1.8,0.4l-2.7-4.9L5.9,14.9z
				 M7,17.2c0.5-0.1,0.7-0.4,0.5-0.7S6.9,16,6.4,16.1l-1.1,0.2l0.6,1.1L7,17.2"/>
		</g>
		<g>
			<polygon class="st14" points="17.4,12.4 20.1,17.4 18.3,17.8 15.6,12.8 			"/>
		</g>
		<g>
			<path class="st14" d="M17.1,17.5c0.1,0.2,0.3,0.4,0.4,0.5l-1.9,0.4c-0.1-0.1-0.3-0.3-0.4-0.5l-0.3-0.5c-0.3-0.5-0.7-0.6-1.2-0.5
				l-1,0.2l0.9,1.7l-1.8,0.4l-2.7-4.9l3.2-0.7c1.8-0.4,2.8,0.2,3.2,0.9c0.3,0.5,0.2,1-0.4,1.4c0.9,0.1,1.2,0.4,1.5,1L17.1,17.5z
				 M13.3,15.8c0.6-0.1,0.7-0.4,0.5-0.7c-0.2-0.4-0.6-0.5-1.1-0.4l-1.1,0.2l0.6,1.1L13.3,15.8"/>
		</g>
		<g>
			<path class="st14" d="M30.1,9.6c2-0.4,4,0.3,4.8,1.9c0.8,1.6,0,2.9-2,3.3c-2,0.4-4-0.3-4.8-1.8C27.2,11.4,28,10.1,30.1,9.6z
				 M32.2,13.6c0.9-0.2,1.2-0.8,0.8-1.7c-0.5-0.9-1.4-1.2-2.3-1.1s-1.3,0.8-0.8,1.7C30.4,13.4,31.3,13.8,32.2,13.6"/>
		</g>
		<g>
			<path class="st14" d="M26,10.6l2.7,4.9l-1.8,0.4l-0.8-1.4c-0.5-0.8-0.8-1.5-1.2-2.3c0.1,0.4,0.1,0.7,0.2,1.2l0.5,2.8l-1.5,0.3
				l-2.4-2.4c-0.4-0.4-0.7-0.7-1-1c0.5,0.8,0.9,1.5,1.3,2.3l0.8,1.4L21,17.2l-2.7-4.9l2.8-0.6l1.6,1.7c0.3,0.3,0.6,0.7,0.9,1
				c-0.1-0.4-0.2-0.8-0.2-1.1l-0.4-2L26,10.6z"/>
		</g>
		<g>
			<path class="st14" d="M49.8,5.6l5.1,4.4l-2,0.4l-0.6-0.6l-2.6,0.6l0.1,0.7L48,11.4L47.7,6L49.8,5.6z M49.7,9.1l1.6-0.3l-1.1-1
				c-0.2-0.2-0.5-0.5-0.7-0.7c0,0.3,0.1,0.6,0.1,0.8L49.7,9.1"/>
		</g>
		<g>
			<polygon class="st14" points="44.8,6.6 47.5,11.6 45.7,11.9 43,7 			"/>
		</g>
		<g>
			<path class="st14" d="M39.8,7.7c1.6-0.3,2.9,0.2,3.4,1.2c0.6,1,0,1.9-1.6,2.2l-1.2,0.3l0.8,1.5l-1.8,0.4l-2.7-4.9L39.8,7.7z
				 M40.9,10c0.5-0.1,0.7-0.4,0.5-0.7c-0.2-0.4-0.6-0.5-1.1-0.4l-1.1,0.2l0.6,1.1L40.9,10"/>
		</g>
		<g>
			<path class="st14" d="M58.6,3.7l2.7,4.9L59.4,9l-2.3-1.5c-0.6-0.4-1.1-0.7-1.6-1c0.4,0.7,0.8,1.4,1.2,2.2l0.4,0.8l-1.8,0.4
				L52.6,5l1.9-0.4L57,6c0.5,0.3,1,0.7,1.6,1c-0.4-0.7-0.8-1.4-1.2-2.2L57,4L58.6,3.7z"/>
		</g>
		<g>
			<path class="st14" d="M62.8,2.7c2-0.4,4,0.3,4.8,1.8c0.8,1.6,0,2.9-2,3.3c-2,0.4-4-0.3-4.8-1.8C59.9,4.4,60.7,3.1,62.8,2.7z
				 M64.9,6.7c0.9-0.2,1.3-0.8,0.8-1.7s-1.4-1.2-2.3-1c-0.9,0.2-1.2,0.8-0.8,1.7S64,6.8,64.9,6.7"/>
		</g>
	</g>
</g>
<g id="MNOINT-numeri" class="st12">
	<g>
		<g class="st15">
			<path class="st16" d="M80.7,43.8c0.2,0,0.5,0,0.6,0.2c0.1,0.1,0,0.2-0.1,0.2c0.1,0,0.3,0.1,0.3,0.2c0.1,0.2,0,0.3-0.3,0.4
				c-0.3,0.1-0.5,0-0.6-0.2h0.2c0.1,0.1,0.2,0.2,0.4,0.2c0.2,0,0.2-0.1,0.2-0.2c-0.1-0.1-0.2-0.2-0.4-0.1h-0.1l-0.1-0.1h0.1
				c0.2,0,0.2-0.1,0.2-0.2s-0.2-0.1-0.3-0.1s-0.2,0.1-0.2,0.2h-0.2C80.3,44,80.4,43.8,80.7,43.8z"/>
		</g>
		<g class="st15">
			<path class="st16" d="M81.8,43.5c0.2,0,0.5,0,0.6,0.2c0.1,0.1,0,0.2-0.1,0.3c0.2,0,0.3,0.1,0.4,0.2c0.1,0.2,0,0.3-0.3,0.4
				c-0.3,0.1-0.5,0-0.6-0.2H82c0.1,0.1,0.2,0.2,0.4,0.2c0.2,0,0.2-0.1,0.2-0.2c-0.1-0.1-0.2-0.2-0.4-0.1h-0.1L81.9,44H82
				c0.2,0,0.2-0.1,0.2-0.2s-0.2-0.1-0.3-0.1c-0.2,0-0.2,0.1-0.2,0.2h-0.2C81.4,43.7,81.5,43.6,81.8,43.5z"/>
		</g>
		<g class="st15">
			<path class="st16" d="M47.3,31.9c0.2,0,0.5,0,0.6,0.2c0,0.1,0,0.2-0.1,0.2c0.2,0,0.3,0.1,0.4,0.2c0.1,0.2,0,0.3-0.3,0.4
				c-0.3,0.1-0.5,0-0.6-0.2h0.2c0.1,0.1,0.2,0.2,0.4,0.2s0.2-0.1,0.2-0.2c-0.1-0.1-0.2-0.2-0.4-0.1h-0.1v-0.1h0.1
				c0.2,0,0.2-0.1,0.2-0.2S47.5,32,47.3,32s-0.2,0.1-0.2,0.2h-0.2C46.9,32.1,47,31.9,47.3,31.9z"/>
		</g>
		<g class="st15">
			<path class="st16" d="M48.7,31.6l0.1,0.1l-0.5,0.1l0.1,0.3c0-0.1,0.1-0.1,0.2-0.1c0.3-0.1,0.5,0,0.6,0.2s0,0.4-0.3,0.4
				s-0.5,0-0.6-0.2h0.2c0.1,0.1,0.2,0.2,0.4,0.1c0.2,0,0.2-0.2,0.2-0.3C49,32.1,48.9,32,48.7,32c-0.1,0-0.2,0.1-0.2,0.2h-0.2
				L48,31.8L48.7,31.6z"/>
		</g>
		<g class="st15">
			<path class="st16" d="M66.3,28.6h0.2l0.1,0.1h-0.2l0.1,0.2h-0.2l-0.1-0.2l-0.7,0.1l-0.1-0.1l0.3-0.8h0.2L66.3,28.6z M66.2,28.6
				l-0.3-0.5l-0.2,0.6L66.2,28.6"/>
		</g>
		<g class="st15">
			<path class="st16" d="M64.6,28.2c0.2,0,0.5,0,0.6,0.2c0.1,0.1,0,0.2-0.1,0.2c0.1,0,0.3,0.1,0.3,0.2c0.1,0.2,0,0.3-0.3,0.4
				s-0.5,0-0.6-0.2h0.2c0.1,0.1,0.2,0.2,0.4,0.1c0.2,0,0.2-0.1,0.2-0.2c-0.1-0.1-0.2-0.2-0.4-0.1h-0.1l-0.1-0.1h0.1
				c0.2,0,0.2-0.1,0.2-0.2c-0.1-0.1-0.2-0.1-0.3-0.1c-0.2,0-0.2,0.1-0.2,0.2h-0.2C64.2,28.4,64.3,28.3,64.6,28.2z"/>
		</g>
		<g class="st17">
			<g>
				<polygon class="st16" points="50.4,59.9 50.4,60 49.9,60.1 49.8,60 				"/>
			</g>
			<g>
				<path class="st16" d="M50.7,59.2c0.2,0,0.5,0,0.6,0.2c0.1,0.1,0,0.2-0.1,0.2c0.1,0,0.3,0.1,0.3,0.2c0.1,0.2,0,0.3-0.3,0.4
					c-0.3,0.1-0.5,0-0.6-0.2h0.2c0.1,0.1,0.2,0.2,0.4,0.2s0.2-0.1,0.2-0.2c-0.1-0.1-0.2-0.2-0.4-0.1h-0.1v-0.1H51
					c0.2,0,0.2-0.1,0.2-0.2S50.9,59.2,50.7,59.2c-0.1,0.1-0.2,0.2-0.1,0.3h-0.2C50.3,59.4,50.4,59.2,50.7,59.2z"/>
			</g>
		</g>
		<g class="st15">
			<path class="st16" d="M48.9,59.6c0.3-0.1,0.6,0.1,0.8,0.4c0.2,0.3,0.1,0.5-0.2,0.6s-0.6-0.1-0.8-0.4
				C48.5,59.9,48.6,59.6,48.9,59.6z M49.4,60.5c0.2,0,0.2-0.2,0.1-0.5c-0.2-0.3-0.3-0.4-0.5-0.3c-0.2,0-0.2,0.2-0.1,0.5
				C49,60.4,49.2,60.5,49.4,60.5"/>
		</g>
		<g class="st15">
			<path class="st16" d="M47.8,59.8c0.2,0,0.5,0,0.6,0.2c0.1,0.1,0,0.2-0.1,0.3c0.2,0,0.3,0.1,0.4,0.2c0.1,0.2,0,0.3-0.3,0.4
				c-0.3,0.1-0.5,0-0.6-0.2H48c0.1,0.1,0.2,0.2,0.4,0.2s0.2-0.1,0.2-0.2c-0.1-0.1-0.2-0.2-0.4-0.1h-0.1v-0.1h0.1
				c0.2,0,0.2-0.1,0.2-0.2s-0.2-0.2-0.4-0.1c-0.2,0-0.2,0.1-0.2,0.2h-0.2C47.4,60,47.5,59.9,47.8,59.8z"/>
		</g>
		<g class="st15">
			<path class="st16" d="M53,58.7c0.2,0,0.5,0,0.6,0.2c0.1,0.1,0,0.2-0.1,0.2c0.1,0,0.3,0.1,0.3,0.2c0.1,0.2,0,0.3-0.3,0.4
				c-0.3,0.1-0.5,0-0.6-0.2h0.2c0.1,0.1,0.2,0.2,0.4,0.2s0.2-0.1,0.2-0.2s-0.2-0.2-0.4-0.1h-0.1v-0.1h0.1c0.2,0,0.2-0.1,0.2-0.2
				S53.3,58.7,53,58.7c-0.1,0.1-0.2,0.2-0.1,0.3h-0.2C52.7,58.9,52.8,58.8,53,58.7z"/>
		</g>
		<g class="st17">
			<g>
				<polygon class="st16" points="52.8,59.4 52.8,59.5 52.3,59.6 52.2,59.5 				"/>
			</g>
			<g>
				<path class="st16" d="M51.7,59l0.5,1H52l-0.4-0.7l-0.3,0.1v-0.1l0,0c0.2,0,0.2-0.1,0.2-0.2L51.7,59z"/>
			</g>
		</g>
		<g class="st15">
			<path class="st16" d="M54.1,58.5c0.2,0,0.5,0,0.6,0.2c0.1,0.1,0,0.2-0.1,0.4l-0.1,0.1c-0.1,0.1-0.2,0.2-0.1,0.3l0.7-0.2l0.1,0.1
				l-0.9,0.2l0,0c-0.1-0.1-0.1-0.3,0.1-0.4l0.1-0.1c0.1-0.1,0.2-0.2,0.1-0.3C54.4,58.6,54.3,58.5,54.1,58.5
				c-0.1,0.1-0.2,0.2-0.1,0.4h-0.2C53.7,58.7,53.8,58.5,54.1,58.5z"/>
		</g>
	</g>
</g>
</svg>
