<?xml version="1.0" encoding="UTF-8" standalone="no"?>
<!-- Generator: Adobe Illustrator 27.0.1, SVG Export Plug-In . SVG Version: 6.00 Build 0)  -->

<svg
   version="1.1"
   id="Livello_1"
   x="0px"
   y="0px"
   viewBox="0 0 354 197.5"
   style="enable-background:new 0 0 354 197.5;"
   xml:space="preserve"
   sodipodi:docname="centro-luna_MAPPA_3D_016_04_2025.svg"
   inkscape:version="1.4.2 (f4327f4, 2025-05-13)"
   xmlns:inkscape="http://www.inkscape.org/namespaces/inkscape"
   xmlns:sodipodi="http://sodipodi.sourceforge.net/DTD/sodipodi-0.dtd"
   xmlns:xlink="http://www.w3.org/1999/xlink"
   xmlns="http://www.w3.org/2000/svg"
   xmlns:svg="http://www.w3.org/2000/svg"><defs
   id="defs353" /><sodipodi:namedview
   id="namedview353"
   pagecolor="#ffffff"
   bordercolor="#000000"
   borderopacity="0.25"
   inkscape:showpageshadow="2"
   inkscape:pageopacity="0.0"
   inkscape:pagecheckerboard="0"
   inkscape:deskcolor="#d1d1d1"
   inkscape:zoom="2.6865406"
   inkscape:cx="120.7873"
   inkscape:cy="148.51813"
   inkscape:window-width="1278"
   inkscape:window-height="1360"
   inkscape:window-x="1273"
   inkscape:window-y="0"
   inkscape:window-maximized="0"
   inkscape:current-layer="Livello_1" />
<style
   type="text/css"
   id="style1">
	.st0{enable-background:new    ;}
	.st1{clip-path:url(#SVGID_00000011028384474260889870000017622798845274087099_);enable-background:new    ;}
	.st2{fill:#9E9B92;}
	.st3{fill:#A29F96;}
	.st4{fill:#A5A299;}
	.st5{fill:#A9A69C;}
	.st6{fill:#B1AEA5;}
	.st7{fill:#949088;}
	.st8{clip-path:url(#SVGID_00000048490949724781797650000009321201299552735133_);enable-background:new    ;}
	.st9{fill:#9B988F;}
	.st10{fill:#97948B;}
	.st11{clip-path:url(#SVGID_00000002376107137593937050000014354121444164274840_);enable-background:new    ;}
	.st12{fill:#E1DED2;}
	.st13{fill:#ACACAC;}
	.st14{fill:#919191;}
	.st15{fill:#808080;}
	.st16{fill:#878787;}
	.st17{fill:#8C8C8C;}
	.st18{fill:#888888;}
	.st19{fill:#8B8B8B;}
	.st20{fill:#818181;}
	.st21{display:none;opacity:0.3;}
	.st22{display:inline;fill:#F18809;}
	.st23{display:inline;fill:#8C5999;}
	.st24{display:inline;fill:#95C11F;}
	.st25{display:inline;fill:#ACACAC;}
	.st26{display:inline;fill:#36A9E1;}
	.st27{display:inline;fill:#DE2828;}
	.st28{display:inline;fill:#3D4F94;}
	.st29{display:inline;fill:#FFCC00;}
	.st30{display:none;}
	.st31{display:inline;fill:#E44E96;}
	.st32{display:inline;fill:#23E0C0;}
	.st33{fill:none;}
	.st34{fill:#333333;}
	.st35{fill:#EEEEEE;}
	.st36{fill:#CD6D2C;}
	.st37{display:inline;}
	.st38{fill:#FFFFFF;}
</style>
<g
   id="MNOINT-base">
	<g
   id="g47">
		<g
   class="st0"
   id="g46">
			<g
   class="st0"
   id="g10">
				<g
   id="g9">
					<g
   id="g8">
						<g
   id="g7">
							<g
   id="g6">
								<defs
   id="defs1">
									<path
   id="SVGID_1_"
   d="M312.7,93.7l-0.3,2.1c-0.4,2.5-2.7,4.7-6.3,5.4l0.3-2.1C310,98.4,312.3,96.2,312.7,93.7z" />
								</defs>
								<clipPath
   id="SVGID_00000051360303088150139670000004318159117339903872_">
									<use
   xlink:href="#SVGID_1_"
   style="overflow:visible;"
   id="use1" />
								</clipPath>
								<g
   style="clip-path:url(#SVGID_00000051360303088150139670000004318159117339903872_);enable-background:new    ;"
   clip-path="url(#SVGID_00000051360303088150139670000004318159117339903872_)"
   id="g5">
									<path
   class="st2"
   d="M312.7,93.7l-0.3,2.1c0,0.1,0,0.2-0.1,0.3l0.3-2.1C312.6,93.9,312.7,93.8,312.7,93.7"
   id="path1" />
									<path
   class="st3"
   d="M312.6,94l-0.3,2.1c-0.1,0.5-0.3,0.9-0.5,1.4l0.3-2.1C312.3,94.9,312.5,94.5,312.6,94"
   id="path2" />
									<path
   class="st4"
   d="M312.1,95.3l-0.3,2.1c-0.3,0.6-0.7,1.1-1.2,1.6l0.3-2.1C311.4,96.4,311.8,95.9,312.1,95.3"
   id="path3" />
									<path
   class="st5"
   d="M310.9,96.9l-0.3,2.1c-1.1,1-2.6,1.8-4.4,2.2l0.3-2.1C308.3,98.7,309.8,97.9,310.9,96.9"
   id="path4" />
									<path
   class="st4"
   d="M306.5,99.1l-0.3,2.1h-0.1L306.5,99.1C306.4,99.1,306.4,99.1,306.5,99.1"
   id="path5" />
								</g>
							</g>
						</g>
					</g>
				</g>
			</g>
			<g
   id="g11">
				<polygon
   class="st6"
   points="314.4,113.8 314,115.9 285,122.1 285.4,120     "
   id="polygon10" />
			</g>
			<g
   id="g12">
				<polygon
   class="st6"
   points="266.5,124 266.1,126.1 259.5,127.5 259.8,125.4     "
   id="polygon11" />
			</g>
			<g
   id="g13">
				<polygon
   class="st7"
   points="259.8,125.4 259.5,127.5 256.9,122.7 257.2,120.7     "
   id="polygon12" />
			</g>
			<g
   class="st0"
   id="g26">
				<g
   id="g25">
					<g
   id="g24">
						<g
   id="g23">
							<g
   id="g22">
								<defs
   id="defs13">
									<path
   id="SVGID_00000178189855762800356820000003370806890483576502_"
   d="M286.4,124.2l-0.3,2.1c-0.4,2.5-2.7,4.7-6.3,5.4           c-5.2,1.1-11.2-1.2-13.4-5.1c-0.1-0.2-0.2-0.4-0.3-0.6l0.3-2.1c0.1,0.2,0.2,0.4,0.3,0.6c2.1,3.9,8.1,6.2,13.4,5.1           C283.7,128.9,286,126.8,286.4,124.2z" />
								</defs>
								<clipPath
   id="SVGID_00000101821598314193543950000014872274150605159321_">
									<use
   xlink:href="#SVGID_00000178189855762800356820000003370806890483576502_"
   style="overflow:visible;"
   id="use13" />
								</clipPath>
								<g
   style="clip-path:url(#SVGID_00000101821598314193543950000014872274150605159321_);enable-background:new    ;"
   clip-path="url(#SVGID_00000101821598314193543950000014872274150605159321_)"
   id="g21">
									<path
   class="st2"
   d="M286.4,124.2l-0.3,2.1c0,0.1,0,0.2-0.1,0.3l0.3-2.1C286.4,124.4,286.4,124.3,286.4,124.2"
   id="path13" />
									<path
   class="st3"
   d="M286.3,124.5l-0.3,2.1c-0.1,0.5-0.3,0.9-0.5,1.4l0.3-2.1C286.1,125.5,286.2,125,286.3,124.5"
   id="path14" />
									<path
   class="st4"
   d="M285.8,125.9l-0.3,2.1c-0.3,0.6-0.7,1.1-1.2,1.6l0.3-2.1C285.1,127,285.5,126.5,285.8,125.9"
   id="path15" />
									<path
   class="st5"
   d="M284.6,127.5l-0.3,2.1c-1.1,1-2.6,1.8-4.4,2.2l0.3-2.1C282,129.3,283.5,128.5,284.6,127.5"
   id="path16" />
									<path
   class="st4"
   d="M280.2,129.7l-0.3,2.1h-0.1c-0.8,0.2-1.6,0.3-2.4,0.3l0.3-2.1C278.5,129.9,279.3,129.9,280.2,129.7           C280.1,129.7,280.1,129.7,280.2,129.7"
   id="path17" />
									<path
   class="st3"
   d="M277.6,130l-0.3,2.1c-0.7,0-1.3,0-2-0.1l0.3-2.1C276.3,129.9,277,130,277.6,130"
   id="path18" />
									<path
   class="st2"
   d="M275.7,129.9l-0.3,2.1c-0.6-0.1-1.3-0.2-1.9-0.4l0.3-2.1C274.4,129.7,275,129.8,275.7,129.9"
   id="path19" />
									<path
   class="st9"
   d="M273.8,129.5l-0.3,2.1c-0.7-0.2-1.4-0.4-2-0.7l0.3-2.1C272.4,129.1,273.1,129.3,273.8,129.5"
   id="path20" />
									<path
   class="st10"
   d="M271.8,128.8l-0.3,2.1c-2.2-0.9-4-2.4-5-4.3c-0.1-0.2-0.2-0.4-0.3-0.6l0.3-2.1           c0.1,0.2,0.2,0.4,0.3,0.6C267.7,126.4,269.6,127.9,271.8,128.8"
   id="path21" />
								</g>
							</g>
						</g>
					</g>
				</g>
			</g>
			<g
   id="g27">
				<polygon
   class="st7"
   points="52.9,108.8 52.6,110.9 22.4,55.4 22.7,53.3     "
   id="polygon26" />
			</g>
			<g
   id="g28">
				<polygon
   class="st6"
   points="257.2,120.7 256.9,122.7 103.4,155.4 103.7,153.3     "
   id="polygon27" />
			</g>
			<g
   id="g29">
				<polygon
   class="st6"
   points="106.3,158 105.9,160.1 101.2,161.2 101.5,159.1     "
   id="polygon28" />
			</g>
			<g
   class="st0"
   id="g42">
				<g
   id="g41">
					<g
   id="g40">
						<g
   id="g39">
							<g
   id="g38">
								<defs
   id="defs29">
									<path
   id="SVGID_00000045594747151030407290000013842542538635121322_"
   d="M102.5,163.3l-0.3,2.1c-0.4,2.5-2.7,4.7-6.3,5.4           c-5.2,1.1-11.2-1.2-13.4-5.1c-0.1-0.2-0.2-0.4-0.3-0.6l0.3-2.1c0.1,0.2,0.2,0.4,0.3,0.6c2.1,3.9,8.1,6.2,13.4,5.1           C99.8,168,102.1,165.9,102.5,163.3z" />
								</defs>
								<clipPath
   id="SVGID_00000167385137517740721400000006211009828975273894_">
									<use
   xlink:href="#SVGID_00000045594747151030407290000013842542538635121322_"
   style="overflow:visible;"
   id="use29" />
								</clipPath>
								<g
   style="clip-path:url(#SVGID_00000167385137517740721400000006211009828975273894_);enable-background:new    ;"
   clip-path="url(#SVGID_00000167385137517740721400000006211009828975273894_)"
   id="g37">
									<path
   class="st2"
   d="M102.5,163.3l-0.3,2.1c0,0.1,0,0.2-0.1,0.3l0.3-2.1C102.5,163.5,102.5,163.4,102.5,163.3"
   id="path29" />
									<path
   class="st3"
   d="M102.5,163.6l-0.3,2.1c-0.1,0.5-0.3,0.9-0.5,1.4l0.3-2.1C102.2,164.5,102.4,164.1,102.5,163.6"
   id="path30" />
									<path
   class="st4"
   d="M102,165l-0.3,2.1c-0.3,0.6-0.7,1.1-1.2,1.6l0.3-2.1C101.3,166.1,101.7,165.5,102,165"
   id="path31" />
									<path
   class="st5"
   d="M100.8,166.5l-0.3,2.1c-1.1,1-2.6,1.8-4.4,2.2l0.3-2.1C98.2,168.3,99.7,167.6,100.8,166.5"
   id="path32" />
									<path
   class="st4"
   d="M96.3,168.7l-0.3,2.1h-0.1c-0.8,0.2-1.6,0.3-2.5,0.3l0.3-2.1C94.6,169,95.4,168.9,96.3,168.7           C96.3,168.8,96.3,168.8,96.3,168.7"
   id="path33" />
									<path
   class="st3"
   d="M93.8,169l-0.3,2.1c-0.7,0-1.3,0-2-0.1l0.3-2.1C92.5,169,93.1,169.1,93.8,169"
   id="path34" />
									<path
   class="st2"
   d="M91.8,168.9l-0.3,2.1c-0.6-0.1-1.3-0.2-1.9-0.4l0.3-2.1C90.5,168.7,91.2,168.9,91.8,168.9"
   id="path35" />
									<path
   class="st9"
   d="M89.9,168.6l-0.3,2.1c-0.7-0.2-1.4-0.4-2-0.7l0.3-2.1C88.5,168.2,89.2,168.4,89.9,168.6"
   id="path36" />
									<path
   class="st10"
   d="M87.9,167.9l-0.3,2.1c-2.2-0.9-4-2.4-5-4.3c-0.1-0.2-0.2-0.4-0.3-0.6l0.3-2.1           c0.1,0.2,0.2,0.4,0.3,0.6C83.9,165.5,85.7,167,87.9,167.9"
   id="path37" />
								</g>
							</g>
						</g>
					</g>
				</g>
			</g>
			<g
   id="g43">
				<polygon
   class="st6"
   points="82.6,163.1 82.3,165.2 55.2,170.9 55.6,168.8     "
   id="polygon42" />
			</g>
			<g
   id="g44">
				<polygon
   class="st7"
   points="55.6,168.8 55.2,170.9 25.7,116.6 26,114.6     "
   id="polygon43" />
			</g>
			<g
   id="g45">
				<path
   class="st12"
   d="M97.4,37.5l3.3,6.1l126.9-27l27,49.4l30.3-6.4l13.8,25.3c5.2-1.1,11.2,1.2,13.4,5.1c2.1,3.9-0.4,8-5.6,9.2      l8,14.7l-29,6.2c0.1,0.2,0.2,0.4,0.3,0.5c2.1,3.9-0.4,8-5.6,9.2c-5.2,1.1-11.2-1.2-13.4-5.1c-0.1-0.2-0.2-0.4-0.3-0.6l-6.6,1.4      l-2.6-4.8l-153.5,32.6l2.6,4.8l-4.8,1c0.1,0.2,0.2,0.4,0.3,0.5c2.1,3.9-0.4,8-5.6,9.2c-5.2,1.1-11.2-1.2-13.4-5.1      c-0.1-0.2-0.2-0.4-0.3-0.6l-27,5.7L26,114.6l26.9-5.7L22.7,53.3L97.4,37.5z"
   id="path44" />
			</g>
		</g>
	</g>
</g>
<g
   id="MNOINT_x5F_negozi3d">
	<g
   id="g244">
		<g
   class="st0"
   id="g51">
			<g
   id="g48">
				<polygon
   class="st13"
   points="283.3,68 294.1,87.9 285.1,89.8 274.3,69.9     "
   id="polygon47" />
			</g>
			<g
   id="g49">
				<polygon
   class="st14"
   points="294.1,87.9 293.8,90 284.8,91.9 285.1,89.8     "
   id="polygon48" />
			</g>
			<g
   id="g50">
				<polygon
   class="st15"
   points="285.1,89.8 284.8,91.9 273.9,72 274.3,69.9     "
   id="polygon49" />
			</g>
		</g>
		<g
   class="st0"
   id="g58">
			<g
   id="g52">
				<polygon
   class="st15"
   points="268.3,78.2 267.9,80.3 264.5,74 264.8,71.9     "
   id="polygon51" />
			</g>
			<g
   id="g53">
				<polygon
   class="st15"
   points="267.7,87 267.3,89.1 263.1,81.3 263.4,79.2     "
   id="polygon52" />
			</g>
			<g
   id="g54">
				<polygon
   class="st16"
   points="273.3,89.3 273,91.4 267.3,89.1 267.7,87     "
   id="polygon53" />
			</g>
			<g
   id="g55">
				<polygon
   class="st13"
   points="273.8,70 284.7,89.9 274.8,92 273.3,89.3 267.7,87 263.4,79.2 268.3,78.2 264.8,71.9     "
   id="polygon54" />
			</g>
			<g
   id="g56">
				<polygon
   class="st14"
   points="284.7,89.9 284.3,92 274.5,94.1 274.8,92     "
   id="polygon55" />
			</g>
			<g
   id="g57">
				<polygon
   class="st15"
   points="274.8,92 274.5,94.1 273,91.4 273.3,89.3     "
   id="polygon56" />
			</g>
		</g>
		<g
   class="st0"
   id="g125">
			<g
   id="g59">
				<polygon
   class="st15"
   points="205.2,106.7 204.9,108.8 202.3,104.1 202.7,102     "
   id="polygon58" />
			</g>
			<g
   id="g60">
				<polygon
   class="st14"
   points="202.7,102 202.3,104.1 193.2,106.1 193.5,104     "
   id="polygon59" />
			</g>
			<g
   id="g61">
				<polygon
   class="st15"
   points="196.6,108.6 196.2,110.7 193.8,106.3 194.2,104.2     "
   id="polygon60" />
			</g>
			<g
   id="g62">
				<polygon
   class="st13"
   points="202.4,102.4 204.8,106.8 196.6,108.6 194.2,104.2     "
   id="polygon61" />
			</g>
			<g
   id="g63">
				<polygon
   class="st14"
   points="204.8,106.8 204.5,108.9 196.2,110.7 196.6,108.6     "
   id="polygon62" />
			</g>
			<g
   id="g64">
				<polygon
   class="st14"
   points="249.1,69.5 248.8,71.6 239.1,73.6 239.5,71.5     "
   id="polygon63" />
			</g>
			<g
   id="g65">
				<polygon
   class="st14"
   points="242.1,76.4 241.8,78.4 239.1,79 239.5,76.9     "
   id="polygon64" />
			</g>
			<g
   id="g66">
				<polygon
   class="st14"
   points="239.5,76.9 239.1,79 230.8,80.8 231.2,78.7     "
   id="polygon65" />
			</g>
			<g
   id="g67">
				<polygon
   class="st13"
   points="254.6,74.1 258,80.4 263,79.3 267.1,86.9 255.4,89.4 247.8,75.5     "
   id="polygon66" />
			</g>
			<g
   id="g68">
				<polygon
   class="st15"
   points="255.4,89.4 255,91.5 247.5,77.6 247.8,75.5     "
   id="polygon67" />
			</g>
			<g
   id="g69">
				<polygon
   class="st14"
   points="267.1,86.9 266.8,89 255,91.5 255.4,89.4     "
   id="polygon68" />
			</g>
			<g
   id="g70">
				<polygon
   class="st14"
   points="254.9,89.5 254.6,91.6 250.6,92.4 251,90.4     "
   id="polygon69" />
			</g>
			<g
   id="g71">
				<polygon
   class="st17"
   points="251,90.4 250.6,92.4 248.3,95.9 248.7,93.8     "
   id="polygon70" />
			</g>
			<g
   id="g72">
				<polygon
   class="st13"
   points="247.3,75.6 254.9,89.5 251,90.4 248.7,93.8 239.7,77.3 242.8,76.6     "
   id="polygon71" />
			</g>
			<g
   id="g73">
				<polygon
   class="st15"
   points="248.7,93.8 248.3,95.9 239.3,79.3 239.7,77.3     "
   id="polygon72" />
			</g>
			<g
   id="g74">
				<polygon
   class="st15"
   points="240.1,94.1 239.7,96.1 231.5,81 231.8,78.9     "
   id="polygon73" />
			</g>
			<g
   id="g75">
				<polygon
   class="st15"
   points="240.3,94.4 239.9,96.5 239.7,96.1 240.1,94.1     "
   id="polygon74" />
			</g>
			<g
   id="g76">
				<polygon
   class="st14"
   points="239.6,94.2 239.3,96.2 230.9,98 231.3,95.9     "
   id="polygon75" />
			</g>
			<g
   id="g77">
				<polygon
   class="st13"
   points="239.2,77.4 248.6,94.7 250,97.3 242.7,98.8 240.3,94.4 240.1,94.1 231.8,78.9     "
   id="polygon76" />
			</g>
			<g
   id="g78">
				<polygon
   class="st15"
   points="242.7,98.8 242.3,100.9 239.9,96.5 240.3,94.4     "
   id="polygon77" />
			</g>
			<g
   id="g79">
				<polygon
   class="st14"
   points="250,97.3 249.7,99.3 242.3,100.9 242.7,98.8     "
   id="polygon78" />
			</g>
			<g
   id="g80">
				<polygon
   class="st15"
   points="261.3,102.8 261,104.9 256.9,97.3 257.2,95.3     "
   id="polygon79" />
			</g>
			<g
   id="g81">
				<polygon
   class="st13"
   points="267.2,93.1 271.3,100.7 261.3,102.8 257.2,95.3     "
   id="polygon80" />
			</g>
			<g
   id="g82">
				<polygon
   class="st14"
   points="271.3,100.7 271,102.7 261,104.9 261.3,102.8     "
   id="polygon81" />
			</g>
			<g
   id="g83">
				<polygon
   class="st14"
   points="231.3,95.9 230.9,98 221.8,100 222.1,97.9     "
   id="polygon82" />
			</g>
			<g
   id="g84">
				<polygon
   class="st14"
   points="242.2,98.9 241.9,101 233.5,102.8 233.9,100.7     "
   id="polygon83" />
			</g>
			<g
   id="g85">
				<polygon
   class="st13"
   points="239.8,94.5 242.2,98.9 233.9,100.7 231.5,96.3     "
   id="polygon84" />
			</g>
			<g
   id="g86">
				<polygon
   class="st15"
   points="233.9,100.7 233.5,102.8 231.1,98.4 231.5,96.3     "
   id="polygon85" />
			</g>
			<g
   id="g87">
				<polygon
   class="st15"
   points="225.2,102.5 224.8,104.6 222.4,100.2 222.8,98.1     "
   id="polygon86" />
			</g>
			<g
   id="g88">
				<polygon
   class="st13"
   points="231,96.4 233.4,100.8 225.2,102.5 222.8,98.1     "
   id="polygon87" />
			</g>
			<g
   id="g89">
				<polygon
   class="st14"
   points="233.4,100.8 233.1,102.9 224.8,104.6 225.2,102.5     "
   id="polygon88" />
			</g>
			<g
   id="g90">
				<polygon
   class="st15"
   points="89,109.1 88.7,111.2 85.9,106.2 86.3,104.1     "
   id="polygon89" />
			</g>
			<g
   id="g91">
				<polygon
   class="st15"
   points="60.1,109.6 59.7,111.7 29.4,56.1 29.8,54     "
   id="polygon90" />
			</g>
			<g
   id="g92">
				<polygon
   class="st14"
   points="86.3,104.1 85.9,106.2 59.7,111.7 60.1,109.6     "
   id="polygon91" />
			</g>
			<g
   id="g93">
				<polygon
   class="st14"
   points="85.3,114.9 85,117 82.6,117.5 83,115.4     "
   id="polygon92" />
			</g>
			<g
   id="g94">
				<polygon
   class="st15"
   points="83,115.4 82.6,117.5 80.2,113 80.5,110.9     "
   id="polygon93" />
			</g>
			<g
   id="g95">
				<polygon
   class="st15"
   points="88.1,120 87.8,122.1 85,117 85.3,114.9     "
   id="polygon94" />
			</g>
			<g
   id="g96">
				<polygon
   class="st14"
   points="87.5,119.8 87.1,121.8 76.4,124.1 76.8,122     "
   id="polygon95" />
			</g>
			<g
   id="g97">
				<polygon
   class="st14"
   points="99,124.2 98.6,126.3 93.2,127.5 93.6,125.4     "
   id="polygon96" />
			</g>
			<g
   id="g98">
				<polygon
   class="st15"
   points="94.9,127 94.6,129 93.8,127.7 94.2,125.6     "
   id="polygon97" />
			</g>
			<g
   id="g99">
				<polygon
   class="st15"
   points="95.1,127.3 94.8,129.4 94.6,129 94.9,127     "
   id="polygon98" />
			</g>
			<g
   id="g100">
				<polygon
   class="st15"
   points="101.5,128.8 101.1,130.9 98.6,126.3 99,124.2     "
   id="polygon99" />
			</g>
			<g
   id="g102">
				<g
   id="g101">
					<polygon
   class="st14"
   points="196.1,108.7 101.5,128.8 101.1,130.9 195.7,110.8      "
   id="polygon100" />
					<polygon
   class="st14"
   points="205.2,106.7 204.9,108.8 224.4,104.7 224.7,102.6      "
   id="polygon101" />
				</g>
			</g>
			<g
   id="g103">
				<polygon
   class="st15"
   points="92.2,127.5 91.9,129.6 87.8,122.1 88.1,120     "
   id="polygon102" />
			</g>
			<g
   id="g104">
				<polygon
   class="st14"
   points="94.5,127.1 94.1,129.1 91.9,129.6 92.2,127.5     "
   id="polygon103" />
			</g>
			<g
   id="g105">
				<polygon
   class="st13"
   points="242.1,76.4 239.5,71.5 249.1,69.5 222.9,21.2 97.5,47.9 93.5,40.5 29.8,54 60.1,109.6 86.3,104.1       89,109.1 80.5,110.9 83,115.4 85.3,114.9 88.1,120 92.2,127.5 94.5,127.1 93.6,125.4 99,124.2 101.5,128.8 196.1,108.7       196.1,108.7 193.5,104 202.7,102 205.2,106.7 224.7,102.6 222.1,97.9 231.3,95.9 239.6,94.2 231.2,78.7 239.5,76.9     "
   id="polygon104" />
			</g>
			<g
   id="g106">
				<polygon
   class="st18"
   points="89.1,128.1 88.8,130.2 83.4,128.2 83.8,126.1     "
   id="polygon105" />
			</g>
			<g
   id="g107">
				<polygon
   class="st14"
   points="83.8,126.1 83.4,128.2 79.6,129 80,126.9     "
   id="polygon106" />
			</g>
			<g
   id="g108">
				<polygon
   class="st15"
   points="80,126.9 79.6,129 77.1,124.4 77.4,122.3     "
   id="polygon107" />
			</g>
			<g
   id="g109">
				<polygon
   class="st14"
   points="101,128.9 100.7,131 96.2,132 96.5,129.9     "
   id="polygon108" />
			</g>
			<g
   id="g110">
				<polygon
   class="st13"
   points="98.7,124.7 101,128.9 96.5,129.9 95.1,127.3 94.9,127 94.2,125.6     "
   id="polygon109" />
			</g>
			<g
   id="g111">
				<polygon
   class="st15"
   points="96.5,129.9 96.2,132 94.8,129.4 95.1,127.3     "
   id="polygon110" />
			</g>
			<g
   id="g112">
				<polygon
   class="st13"
   points="87.7,120.1 91.9,128 94.7,127.4 96.1,130 90.7,131.1 89.1,128.1 83.8,126.1 80,126.9 77.4,122.3           "
   id="polygon111" />
			</g>
			<g
   id="g113">
				<polygon
   class="st15"
   points="90.7,131.1 90.4,133.2 88.8,130.2 89.1,128.1     "
   id="polygon112" />
			</g>
			<g
   id="g114">
				<polygon
   class="st14"
   points="96.1,130 95.7,132.1 90.4,133.2 90.7,131.1     "
   id="polygon113" />
			</g>
			<g
   id="g115">
				<polygon
   class="st14"
   points="79.5,127 79.1,129.1 66.7,131.7 67.1,129.6     "
   id="polygon114" />
			</g>
			<g
   id="g116">
				<polygon
   class="st19"
   points="67.1,129.6 66.7,131.7 64.5,135.4 64.8,133.3     "
   id="polygon115" />
			</g>
			<g
   id="g117">
				<polygon
   class="st19"
   points="85.7,137.5 85.3,139.5 83.8,142.1 84.1,140     "
   id="polygon116" />
			</g>
			<g
   id="g118">
				<polygon
   class="st15"
   points="76.6,139.4 76.3,141.5 74.7,138.6 75.1,136.6     "
   id="polygon117" />
			</g>
			<g
   id="g119">
				<polygon
   class="st13"
   points="80.4,133.2 84.2,134.6 85.7,137.5 84.1,140 80.4,140.8 76.6,139.4 75.1,136.6 76.7,134     "
   id="polygon118" />
			</g>
			<g
   id="g120">
				<polygon
   class="st18"
   points="80.4,140.8 80,142.9 76.3,141.5 76.6,139.4     "
   id="polygon119" />
			</g>
			<g
   id="g121">
				<polygon
   class="st14"
   points="84.1,140 83.8,142.1 80,142.9 80.4,140.8     "
   id="polygon120" />
			</g>
			<g
   id="g122">
				<polygon
   class="st13"
   points="80.1,111 82.7,115.8 85.1,115.3 87.5,119.8 76.8,122 79.5,127 67.1,129.6 64.8,133.3 65.4,134.3       48,138 38.1,119.9     "
   id="polygon121" />
			</g>
			<g
   id="g123">
				<polygon
   class="st14"
   points="65.4,134.3 65,136.4 47.6,140.1 48,138     "
   id="polygon122" />
			</g>
			<g
   id="g124">
				<polygon
   class="st15"
   points="48,138 47.6,140.1 37.8,122 38.1,119.9     "
   id="polygon123" />
			</g>
		</g>
		<g
   class="st0"
   id="g129">
			<g
   id="g126">
				<polygon
   class="st13"
   points="256,106.9 261.2,108.9 265,108.1 268.3,114.1 260.8,115.6     "
   id="polygon125" />
			</g>
			<g
   id="g127">
				<polygon
   class="st14"
   points="268.3,114.1 267.9,116.1 260.4,117.7 260.8,115.6     "
   id="polygon126" />
			</g>
			<g
   id="g128">
				<polygon
   class="st15"
   points="260.8,115.6 260.4,117.7 255.7,109 256,106.9     "
   id="polygon127" />
			</g>
		</g>
		<g
   class="st0"
   id="g133">
			<g
   id="g130">
				<polygon
   class="st13"
   points="253.8,103.9 255.1,106.2 260.5,116.1 260.7,116.4 244.3,119.9 237.5,107.4     "
   id="polygon129" />
			</g>
			<g
   id="g131">
				<polygon
   class="st14"
   points="260.7,116.4 260.3,118.5 244,122 244.3,119.9     "
   id="polygon130" />
			</g>
			<g
   id="g132">
				<polygon
   class="st15"
   points="244.3,119.9 244,122 237.1,109.4 237.5,107.4     "
   id="polygon131" />
			</g>
		</g>
		<g
   class="st0"
   id="g139">
			<g
   id="g134">
				<polygon
   class="st14"
   points="229.6,119.8 229.3,121.9 226.8,122.4 227.1,120.3     "
   id="polygon133" />
			</g>
			<g
   id="g135">
				<polygon
   class="st15"
   points="227.1,120.3 226.8,122.4 221.5,112.8 221.9,110.7     "
   id="polygon134" />
			</g>
			<g
   id="g136">
				<polygon
   class="st13"
   points="237,107.5 243.9,120 231.2,122.7 229.6,119.8 227.1,120.3 221.9,110.7     "
   id="polygon135" />
			</g>
			<g
   id="g137">
				<polygon
   class="st14"
   points="243.9,120 243.5,122.1 230.9,124.8 231.2,122.7     "
   id="polygon136" />
			</g>
			<g
   id="g138">
				<polygon
   class="st15"
   points="231.2,122.7 230.9,124.8 229.3,121.9 229.6,119.8     "
   id="polygon137" />
			</g>
		</g>
		<g
   class="st0"
   id="g144">
			<g
   id="g140">
				<polygon
   class="st14"
   points="220.3,117.3 219.9,119.4 214.1,120.6 214.5,118.5     "
   id="polygon139" />
			</g>
			<g
   id="g141">
				<polygon
   class="st13"
   points="217.2,111.7 220.3,117.3 214.5,118.5 218.1,125.3 213.5,126.3 206.7,113.9     "
   id="polygon140" />
			</g>
			<g
   id="g142">
				<polygon
   class="st14"
   points="218.1,125.3 217.8,127.4 213.1,128.4 213.5,126.3     "
   id="polygon141" />
			</g>
			<g
   id="g143">
				<polygon
   class="st15"
   points="213.5,126.3 213.1,128.4 206.4,116 206.7,113.9     "
   id="polygon142" />
			</g>
		</g>
		<g
   class="st0"
   id="g148">
			<g
   id="g145">
				<polygon
   class="st13"
   points="206.2,114 213,126.4 206.1,127.9 199.3,115.5     "
   id="polygon144" />
			</g>
			<g
   id="g146">
				<polygon
   class="st14"
   points="213,126.4 212.6,128.5 205.7,130 206.1,127.9     "
   id="polygon145" />
			</g>
			<g
   id="g147">
				<polygon
   class="st15"
   points="206.1,127.9 205.7,130 199,117.6 199.3,115.5     "
   id="polygon146" />
			</g>
		</g>
		<g
   class="st0"
   id="g153">
			<g
   id="g149">
				<polygon
   class="st14"
   points="194.6,119.2 194.3,121.3 194,121.4 194.3,119.3     "
   id="polygon148" />
			</g>
			<g
   id="g150">
				<polygon
   class="st13"
   points="198.9,115.6 205.6,128 200,129.2 194.6,119.2 194.3,119.3 198.1,115.7     "
   id="polygon149" />
			</g>
			<g
   id="g151">
				<polygon
   class="st14"
   points="205.6,128 205.3,130.1 199.7,131.3 200,129.2     "
   id="polygon150" />
			</g>
			<g
   id="g152">
				<polygon
   class="st15"
   points="200,129.2 199.7,131.3 194.3,121.3 194.6,119.2     "
   id="polygon151" />
			</g>
		</g>
		<g
   class="st0"
   id="g157">
			<g
   id="g154">
				<polygon
   class="st13"
   points="194.3,119.7 199.5,129.3 187.9,131.7 182.7,122.2 192.9,120     "
   id="polygon153" />
			</g>
			<g
   id="g155">
				<polygon
   class="st14"
   points="199.5,129.3 199.2,131.3 187.5,133.8 187.9,131.7     "
   id="polygon154" />
			</g>
			<g
   id="g156">
				<polygon
   class="st15"
   points="187.9,131.7 187.5,133.8 182.3,124.3 182.7,122.2     "
   id="polygon155" />
			</g>
		</g>
		<g
   class="st0"
   id="g161">
			<g
   id="g158">
				<polygon
   class="st13"
   points="182.2,122.3 187.4,131.8 181.9,133 176.7,123.4     "
   id="polygon157" />
			</g>
			<g
   id="g159">
				<polygon
   class="st14"
   points="187.4,131.8 187.1,133.9 181.5,135.1 181.9,133     "
   id="polygon158" />
			</g>
			<g
   id="g160">
				<polygon
   class="st15"
   points="181.9,133 181.5,135.1 176.3,125.5 176.7,123.4     "
   id="polygon159" />
			</g>
		</g>
		<g
   class="st0"
   id="g165">
			<g
   id="g162">
				<polygon
   class="st13"
   points="176.2,123.5 181.4,133.1 172.4,135 167.2,125.5     "
   id="polygon161" />
			</g>
			<g
   id="g163">
				<polygon
   class="st14"
   points="181.4,133.1 181.1,135.2 172.1,137.1 172.4,135     "
   id="polygon162" />
			</g>
			<g
   id="g164">
				<polygon
   class="st15"
   points="172.4,135 172.1,137.1 166.9,127.5 167.2,125.5     "
   id="polygon163" />
			</g>
		</g>
		<g
   class="st0"
   id="g169">
			<g
   id="g166">
				<polygon
   class="st13"
   points="166.8,125.6 172,135.1 164.3,136.8 159.1,127.2     "
   id="polygon165" />
			</g>
			<g
   id="g167">
				<polygon
   class="st14"
   points="172,135.1 171.6,137.2 163.9,138.8 164.3,136.8     "
   id="polygon166" />
			</g>
			<g
   id="g168">
				<polygon
   class="st15"
   points="164.3,136.8 163.9,138.8 158.7,129.3 159.1,127.2     "
   id="polygon167" />
			</g>
		</g>
		<g
   class="st0"
   id="g173">
			<g
   id="g170">
				<polygon
   class="st13"
   points="65.6,134.7 70.1,143 52.7,146.7 48.2,138.4     "
   id="polygon169" />
			</g>
			<g
   id="g171">
				<polygon
   class="st14"
   points="70.1,143 69.7,145 52.3,148.7 52.7,146.7     "
   id="polygon170" />
			</g>
			<g
   id="g172">
				<polygon
   class="st15"
   points="52.7,146.7 52.3,148.7 47.8,140.5 48.2,138.4     "
   id="polygon171" />
			</g>
		</g>
		<g
   class="st0"
   id="g178">
			<g
   id="g174">
				<polygon
   class="st14"
   points="84.4,153.2 84.1,155.3 76.3,156.9 76.7,154.8     "
   id="polygon173" />
			</g>
			<g
   id="g175">
				<polygon
   class="st13"
   points="70.3,143.3 71.7,145.9 77.4,148.1 81.2,147.2 84.4,153.2 76.7,154.8 78.9,158.9 61.3,162.6       52.9,147     "
   id="polygon174" />
			</g>
			<g
   id="g176">
				<polygon
   class="st14"
   points="78.9,158.9 78.5,160.9 61,164.7 61.3,162.6     "
   id="polygon175" />
			</g>
			<g
   id="g177">
				<polygon
   class="st15"
   points="61.3,162.6 61,164.7 52.5,149.1 52.9,147     "
   id="polygon176" />
			</g>
		</g>
		<g
   class="st0"
   id="g182">
			<g
   id="g179">
				<polygon
   class="st13"
   points="151,125.7 158.6,127.2 163.8,136.9 157.8,138.1     "
   id="polygon178" />
			</g>
			<g
   id="g180">
				<polygon
   class="st14"
   points="163.8,136.9 163.5,138.9 157.4,140.2 157.8,138.1     "
   id="polygon179" />
			</g>
			<g
   id="g181">
				<polygon
   class="st15"
   points="157.8,138.1 157.4,140.2 150.7,127.8 151,125.7     "
   id="polygon180" />
			</g>
		</g>
		<g
   class="st0"
   id="g186">
			<g
   id="g183">
				<polygon
   class="st13"
   points="150.5,125.7 157.3,138.2 150.8,139.6 144,127     "
   id="polygon182" />
			</g>
			<g
   id="g184">
				<polygon
   class="st14"
   points="157.3,138.2 157,140.3 150.5,141.7 150.8,139.6     "
   id="polygon183" />
			</g>
			<g
   id="g185">
				<polygon
   class="st15"
   points="150.8,139.6 150.5,141.7 143.6,129.1 144,127     "
   id="polygon184" />
			</g>
		</g>
		<g
   class="st0"
   id="g190">
			<g
   id="g187">
				<polygon
   class="st13"
   points="139.3,128 146.1,140.6 137.6,142.4 130.8,129.8     "
   id="polygon186" />
			</g>
			<g
   id="g188">
				<polygon
   class="st14"
   points="146.1,140.6 145.8,142.7 137.3,144.5 137.6,142.4     "
   id="polygon187" />
			</g>
			<g
   id="g189">
				<polygon
   class="st15"
   points="137.6,142.4 137.3,144.5 130.5,131.9 130.8,129.8     "
   id="polygon188" />
			</g>
		</g>
		<g
   class="st0"
   id="g194">
			<g
   id="g191">
				<polygon
   class="st13"
   points="130.3,129.9 137.2,142.5 128.7,144.3 121.8,131.7     "
   id="polygon190" />
			</g>
			<g
   id="g192">
				<polygon
   class="st14"
   points="137.2,142.5 136.8,144.6 128.3,146.4 128.7,144.3     "
   id="polygon191" />
			</g>
			<g
   id="g193">
				<polygon
   class="st15"
   points="128.7,144.3 128.3,146.4 121.5,133.8 121.8,131.7     "
   id="polygon192" />
			</g>
		</g>
		<g
   class="st0"
   id="g198">
			<g
   id="g195">
				<polygon
   class="st13"
   points="121.4,131.8 128.2,144.4 119.7,146.2 112.9,133.6     "
   id="polygon194" />
			</g>
			<g
   id="g196">
				<polygon
   class="st14"
   points="128.2,144.4 127.9,146.5 119.4,148.3 119.7,146.2     "
   id="polygon195" />
			</g>
			<g
   id="g197">
				<polygon
   class="st15"
   points="119.7,146.2 119.4,148.3 112.5,135.7 112.9,133.6     "
   id="polygon196" />
			</g>
		</g>
		<g
   class="st0"
   id="g202">
			<g
   id="g199">
				<polygon
   class="st13"
   points="112.4,133.7 119.3,146.3 110.9,148.1 104,135.5     "
   id="polygon198" />
			</g>
			<g
   id="g200">
				<polygon
   class="st14"
   points="119.3,146.3 118.9,148.4 110.5,150.2 110.9,148.1     "
   id="polygon199" />
			</g>
			<g
   id="g201">
				<polygon
   class="st15"
   points="110.9,148.1 110.5,150.2 103.7,137.6 104,135.5     "
   id="polygon200" />
			</g>
		</g>
		<g
   class="st0"
   id="g218">
			<g
   id="g203">
				<polygon
   class="st15"
   points="104.3,146.4 103.9,148.5 98.6,138.7 98.9,136.6     "
   id="polygon202" />
			</g>
			<g
   id="g204">
				<polygon
   class="st14"
   points="103.6,146.2 103.3,148.3 102.4,148.5 102.7,146.4     "
   id="polygon203" />
			</g>
			<g
   id="g205">
				<polygon
   class="st15"
   points="99.4,147.1 99.1,149.2 95.6,142.8 96,140.7     "
   id="polygon204" />
			</g>
			<g
   id="g206">
				<polygon
   class="st14"
   points="101.1,146.7 100.8,148.8 99.1,149.2 99.4,147.1     "
   id="polygon205" />
			</g>
			<g
   id="g207">
				<polygon
   class="st15"
   points="104.9,149.4 104.5,151.5 103,148.7 103.4,146.6     "
   id="polygon206" />
			</g>
			<g
   id="g208">
				<polygon
   class="st13"
   points="103.5,135.6 110.4,148.2 104.9,149.4 103.4,146.6 104.3,146.4 98.9,136.6     "
   id="polygon207" />
			</g>
			<g
   id="g209">
				<polygon
   class="st14"
   points="110.4,148.2 110,150.3 104.5,151.5 104.9,149.4     "
   id="polygon208" />
			</g>
			<g
   id="g210">
				<polygon
   class="st14"
   points="104.4,149.5 104.1,151.6 102.5,151.9 102.8,149.8     "
   id="polygon209" />
			</g>
			<g
   id="g211">
				<polygon
   class="st15"
   points="102.8,149.8 102.5,151.9 100.8,148.8 101.1,146.7     "
   id="polygon210" />
			</g>
			<g
   id="g212">
				<polygon
   class="st13"
   points="98.6,136.9 103.6,146.2 102.7,146.4 104.4,149.5 102.8,149.8 101.1,146.7 99.4,147.1 96,140.7           "
   id="polygon211" />
			</g>
			<g
   id="g213">
				<polygon
   class="st14"
   points="102.4,149.9 102,152 100.6,152.3 100.9,150.2     "
   id="polygon212" />
			</g>
			<g
   id="g214">
				<polygon
   class="st15"
   points="100.9,150.2 100.6,152.3 100.3,151.8 100.7,149.7     "
   id="polygon213" />
			</g>
			<g
   id="g215">
				<polygon
   class="st15"
   points="92.9,151.4 92.6,153.5 89.3,147.5 89.7,145.4     "
   id="polygon214" />
			</g>
			<g
   id="g216">
				<polygon
   class="st13"
   points="95.7,141.1 99.2,147.5 100.9,147.2 102.4,149.9 100.9,150.2 100.7,149.7 92.9,151.4 89.7,145.4       93.6,144.6     "
   id="polygon215" />
			</g>
			<g
   id="g217">
				<polygon
   class="st14"
   points="100.7,149.7 100.3,151.8 92.6,153.5 92.9,151.4     "
   id="polygon216" />
			</g>
		</g>
		<g
   class="st0"
   id="g231">
			<g
   id="g219">
				<polygon
   class="st15"
   points="279.9,101.4 279.5,103.4 278.1,100.7 278.4,98.7     "
   id="polygon218" />
			</g>
			<g
   id="g220">
				<polygon
   class="st14"
   points="301.6,101.6 301.2,103.7 291.6,105.7 291.9,103.6     "
   id="polygon219" />
			</g>
			<g
   id="g221">
				<polygon
   class="st19"
   points="291.9,103.6 291.6,105.7 279.5,103.4 279.9,101.4     "
   id="polygon220" />
			</g>
			<g
   id="g222">
				<polygon
   class="st13"
   points="297.8,94.5 301.6,101.6 291.9,103.6 279.9,101.4 278.4,98.7     "
   id="polygon221" />
			</g>
			<g
   id="g223">
				<polygon
   class="st20"
   points="283.5,108 283.2,110.1 278.5,105.4 278.8,103.3     "
   id="polygon222" />
			</g>
			<g
   id="g224">
				<polygon
   class="st15"
   points="285.1,110.9 284.8,112.9 283.2,110.1 283.5,108     "
   id="polygon223" />
			</g>
			<g
   id="g225">
				<polygon
   class="st15"
   points="277,112.2 276.6,114.3 273.3,108.3 273.7,106.2     "
   id="polygon224" />
			</g>
			<g
   id="g226">
				<polygon
   class="st14"
   points="284.5,110.6 284.1,112.7 276.6,114.3 277,112.2     "
   id="polygon225" />
			</g>
			<g
   id="g227">
				<polygon
   class="st13"
   points="278.6,103.7 283.1,108.1 284.5,110.6 277,112.2 273.7,106.2 277.5,105.4     "
   id="polygon226" />
			</g>
			<g
   id="g228">
				<polygon
   class="st13"
   points="279.8,101.7 291.9,104 301.8,101.9 306.6,110.9 287.3,115 285.1,110.9 283.5,108 278.8,103.3           "
   id="polygon227" />
			</g>
			<g
   id="g229">
				<polygon
   class="st14"
   points="306.6,110.9 306.3,112.9 287,117 287.3,115     "
   id="polygon228" />
			</g>
			<g
   id="g230">
				<polygon
   class="st15"
   points="287.3,115 287,117 284.8,112.9 285.1,110.9     "
   id="polygon229" />
			</g>
		</g>
		<g
   class="st0"
   id="g235">
			<g
   id="g232">
				<polygon
   class="st13"
   points="340.1,100.7 343.8,107.6 327.2,111.2 323.4,104.2     "
   id="polygon231" />
			</g>
			<g
   id="g233">
				<polygon
   class="st14"
   points="343.8,107.6 343.5,109.7 326.8,113.2 327.2,111.2     "
   id="polygon232" />
			</g>
			<g
   id="g234">
				<polygon
   class="st15"
   points="327.2,111.2 326.8,113.2 323,106.3 323.4,104.2     "
   id="polygon233" />
			</g>
		</g>
		<g
   class="st0"
   id="g239">
			<g
   id="g236">
				<polygon
   class="st13"
   points="322.9,104.3 326.7,111.3 318.1,113.1 314.3,106.2     "
   id="polygon235" />
			</g>
			<g
   id="g237">
				<polygon
   class="st14"
   points="326.7,111.3 326.3,113.3 317.7,115.2 318.1,113.1     "
   id="polygon236" />
			</g>
			<g
   id="g238">
				<polygon
   class="st15"
   points="318.1,113.1 317.7,115.2 314,108.2 314.3,106.2     "
   id="polygon237" />
			</g>
		</g>
		<g
   class="st0"
   id="g243">
			<g
   id="g240">
				<polygon
   class="st13"
   points="41,148.9 49.1,163.8 29.3,168 21.2,153.1     "
   id="polygon239" />
			</g>
			<g
   id="g241">
				<polygon
   class="st14"
   points="49.1,163.8 48.7,165.9 29,170.1 29.3,168     "
   id="polygon240" />
			</g>
			<g
   id="g242">
				<polygon
   class="st15"
   points="29.3,168 29,170.1 20.9,155.2 21.2,153.1     "
   id="polygon241" />
			</g>
		</g>
	</g>
	<g
   id="_x3C_Gruppo_x3E_"
   class="st21">
		<polygon
   id="n23"
   class="st22"
   points="283.3,68 294.1,87.9 285.1,89.8 274.3,69.9   " />
		<polygon
   id="n24"
   class="st23"
   points="273.8,70 284.7,89.9 274.8,92 273.3,89.3 267.7,87 263.4,79.2 268.3,78.2 264.8,71.9   " />
		<polygon
   id="n25"
   class="st24"
   points="254.6,74.1 258,80.4 263,79.3 267.1,86.9 255.4,89.4 247.8,75.5   " />
		<polygon
   id="n26b"
   class="st24"
   points="247.3,75.6 254.9,89.5 251,90.4 248.7,93.8 239.7,77.3 242.8,76.6   " />
		<polygon
   id="n26a"
   class="st23"
   points="239.2,77.4 248.6,94.7 250,97.3 242.7,98.8 240.3,94.4 240.1,94.1 231.8,78.9   " />
		<polygon
   id="n37"
   class="st25"
   points="267.2,93.1 271.3,100.7 261.3,102.8 257.2,95.3   " />
		<polygon
   id="n27"
   class="st26"
   points="239.8,94.5 242.2,98.9 233.9,100.7 231.5,96.3   " />
		<polygon
   id="n28"
   class="st25"
   points="231,96.4 233.4,100.8 225.2,102.5 222.8,98.1   " />
		<polygon
   id="n36"
   class="st27"
   points="93.5,40.5 97.5,47.9 222.9,21.2 249.1,69.5 239.5,71.5 242.1,76.4 239.5,76.9 231.2,78.7     239.6,94.2 231.3,95.9 222.1,97.9 224.7,102.6 101.5,128.8 99,124.2 93.6,125.4 94.5,127.1 92.2,127.5 88.1,120 85.3,114.9     83,115.4 80.5,110.9 89,109.1 86.3,104.1 60.1,109.6 29.8,54   " />
		<polygon
   id="n39"
   class="st22"
   points="98.7,124.7 101,128.9 96.5,129.9 95.1,127.3 94.9,127 94.2,125.6   " />
		<polygon
   id="n29"
   class="st28"
   points="87.7,120.1 91.9,128 94.7,127.4 96.1,130 90.7,131.1 89.1,128.1 83.8,126.1 80,126.9     77.4,122.3   " />
		<polygon
   id="n33"
   class="st29"
   points="80.4,133.2 84.2,134.6 85.7,137.5 84.1,140 80.4,140.8 76.6,139.4 75.1,136.6 76.7,134       " />
		<polygon
   id="n30"
   class="st23"
   points="80.1,111 82.7,115.8 85.1,115.3 87.5,119.8 76.8,122 79.5,127 67.1,129.6 64.8,133.3     65.4,134.3 48,138 38.1,119.9   " />
		<polygon
   id="n20"
   class="st24"
   points="256,106.9 261.2,108.9 265,108.1 268.3,114.1 260.8,115.6   " />
		<polygon
   id="n18-19"
   class="st24"
   points="253.8,103.9 255.1,106.2 260.5,116.1 260.7,116.4 244.3,119.9 237.5,107.4   " />
		<polygon
   id="n16-17"
   class="st24"
   points="237,107.5 243.9,120 231.2,122.7 229.6,119.8 227.1,120.3 221.9,110.7   " />
		<polygon
   id="n15"
   class="st24"
   points="217.2,111.7 220.3,117.3 214.5,118.5 218.1,125.3 213.5,126.3 206.7,113.9   " />
		<polygon
   id="n14"
   class="st24"
   points="206.2,114 213,126.4 206.1,127.9 199.3,115.5   " />
		<polygon
   id="n13"
   class="st13"
   points="198.9,115.6 205.6,128 200,129.2 194.6,119.2 194.3,119.3 198.1,115.7   " />
		<polygon
   id="n12"
   class="st29"
   points="194.3,119.7 199.5,129.3 187.9,131.7 182.7,122.2 192.9,120   " />
		<polygon
   id="n11"
   class="st22"
   points="182.2,122.3 187.4,131.8 181.9,133 176.7,123.4   " />
		<polygon
   id="n10"
   class="st23"
   points="176.2,123.5 181.4,133.1 172.4,135 167.2,125.5   " />
		<polygon
   id="n9"
   class="st24"
   points="166.8,125.6 172,135.1 164.3,136.8 159.1,127.2   " />
		<polygon
   id="n31"
   class="st24"
   points="65.6,134.7 70.1,143 52.7,146.7 48.2,138.4   " />
		<polygon
   id="n32"
   class="st22"
   points="70.3,143.3 71.7,145.9 77.4,148.1 81.2,147.2 84.4,153.2 76.7,154.8 78.9,158.9     61.3,162.6 52.9,147   " />
		<polygon
   id="n8"
   class="st26"
   points="151,125.7 158.6,127.2 163.8,136.9 157.8,138.1   " />
		<polygon
   id="n7"
   class="st29"
   points="150.5,125.7 157.3,138.2 150.8,139.6 144,127   " />
		<polygon
   id="n6"
   class="st23"
   points="139.3,128 146.1,140.6 137.6,142.4 130.8,129.8   " />
		<polygon
   id="n5"
   class="st23"
   points="130.3,129.9 137.2,142.5 128.7,144.3 121.8,131.7   " />
		<polygon
   id="n4"
   class="st22"
   points="121.4,131.8 128.2,144.4 119.7,146.2 112.9,133.6   " />
		<polygon
   id="n2"
   class="st26"
   points="103.5,135.6 110.4,148.2 104.9,149.4 103.4,146.6 104.3,146.4 98.9,136.6   " />
		<polygon
   id="n2bis"
   class="st22"
   points="98.6,136.9 103.6,146.2 102.7,146.4 104.4,149.5 102.8,149.8 101.1,146.7 99.4,147.1     96,140.7   " />
		<polygon
   id="n1"
   class="st25"
   points="95.7,141.1 99.2,147.5 100.9,147.2 102.4,149.9 100.9,150.2 100.7,149.7 92.9,151.4     89.7,145.4 93.6,144.6   " />
		<polygon
   id="n22a"
   class="st29"
   points="297.8,94.5 301.6,101.6 291.9,103.6 279.9,101.4 278.4,98.7   " />
		<polygon
   id="n21"
   class="st13"
   points="278.6,103.7 283.1,108.1 284.5,110.6 277,112.2 273.7,106.2 277.5,105.4   " />
		<polygon
   id="n22b"
   class="st22"
   points="279.8,101.7 291.9,104 301.8,101.9 306.6,110.9 287.3,115 285.1,110.9 283.5,108     278.8,103.3   " />
		<polygon
   id="n34"
   class="st25"
   points="340.1,100.7 343.8,107.6 327.2,111.2 323.4,104.2   " />
		<polygon
   id="n35_2_"
   class="st22"
   points="322.9,104.3 326.7,111.3 318.1,113.1 314.3,106.2   " />
		<polygon
   id="n38_1_"
   class="st22"
   points="41,148.9 49.1,163.8 29.3,168 21.2,153.1   " />
	</g>
</g>
<g
   id="active-alimentari"
   class="st30">
	<polygon
   id="n36_2"
   class="st27"
   points="242.1,76.4 239.5,71.5 249.1,69.5 222.9,21.2 97.5,47.9 93.5,40.5 29.8,54 60.1,109.6    86.3,104.1 89,109.1 80.5,110.9 83,115.4 85.3,114.9 88.1,120 92.2,127.5 94.5,127.1 93.6,125.4 99,124.2 101.5,128.8 196.1,108.7    196.1,108.7 193.5,104 202.7,102 205.2,106.7 224.7,102.6 222.1,97.9 231.3,95.9 239.6,94.2 231.2,78.7 239.5,76.9  " />
</g>
<g
   id="active-abbigliamento"
   class="st30">
	<polygon
   id="n24_2_"
   class="st23"
   points="273.8,70 284.7,89.9 274.8,92 273.3,89.3 267.7,87 263.4,79.2 268.3,78.2 264.8,71.9   " />
	<polygon
   id="n26a_2_"
   class="st23"
   points="239.2,77.4 248.6,94.7 250,97.3 242.7,98.8 240.3,94.4 240.1,94.1 231.8,78.9  " />
	<polygon
   id="n10_2_"
   class="st23"
   points="176.2,123.5 181.4,133.1 172.4,135 167.2,125.5  " />
	<polygon
   id="n6_2_"
   class="st23"
   points="139.3,128 146.1,140.6 137.6,142.4 130.8,129.8  " />
	<polygon
   id="n5_2_"
   class="st23"
   points="130.3,129.9 137.2,142.5 128.7,144.3 121.8,131.7  " />
	<polygon
   id="n16-17_2_"
   class="st23"
   points="237,107.5 243.9,120 231.2,122.7 229.6,119.8 227.1,120.3 221.9,110.7  " />
	<polygon
   id="n18-19_2_"
   class="st23"
   points="253.8,103.9 255.1,106.2 260.5,116.1 260.7,116.4 244.3,119.9 237.5,107.4  " />
</g>
<g
   id="active-ristorazione"
   class="st30">
	<polygon
   id="n7_2_"
   class="st29"
   points="150.5,125.7 157.3,138.2 150.8,139.6 144,127   " />
	<polygon
   id="n33_2_"
   class="st29"
   points="80.4,133.2 84.2,134.6 85.7,137.5 84.1,140 80.4,140.8 76.6,139.4 75.1,136.6 76.7,134     " />
	<polygon
   id="n12_2_"
   class="st29"
   points="194.3,119.7 199.5,129.3 187.9,131.7 182.7,122.2 192.9,120  " />
	<polygon
   id="n22a_2_"
   class="st29"
   points="297.8,94.5 301.6,101.6 291.9,103.6 279.9,101.4 278.4,98.7  " />
</g>
<g
   id="active-cultura"
   class="st30">
	<polygon
   id="n29_2_"
   class="st31"
   points="87.7,120.1 91.9,128 94.7,127.4 96.1,130 90.7,131.1 89.1,128.1 83.8,126.1 80,126.9    77.4,122.3  " />
	<polygon
   id="n32_2_"
   class="st31"
   points="70.3,143.3 71.7,145.9 77.4,148.1 81.2,147.2 84.4,153.2 76.7,154.8 78.9,158.9    61.3,162.6 52.9,147  " />
	<polygon
   id="n14_2_"
   class="st31"
   points="206.2,114 213,126.4 206.1,127.9 199.3,115.5  " />
	<polygon
   id="n15_2_"
   class="st31"
   points="217.2,111.7 220.3,117.3 214.5,118.5 218.1,125.3 213.5,126.3 206.7,113.9  " />
</g>
<g
   id="active-cura"
   class="st30">
	<polygon
   id="n25_2_"
   class="st24"
   points="254.6,74.1 258,80.4 263,79.3 267.1,86.9 255.4,89.4 247.8,75.5  " />
	<polygon
   id="n26b_2_"
   class="st24"
   points="247.3,75.6 254.9,89.5 251,90.4 248.7,93.8 239.7,77.3 242.8,76.6  " />
	<polygon
   id="n20_2_"
   class="st24"
   points="256,106.9 261.2,108.9 265,108.1 268.3,114.1 260.8,115.6  " />
	<polygon
   id="n9_2_"
   class="st24"
   points="166.8,125.6 172,135.1 164.3,136.8 159.1,127.2  " />
	<polygon
   id="n31_2_"
   class="st24"
   points="65.6,134.7 70.1,143 52.7,146.7 48.2,138.4  " />
</g>
<g
   id="active-elettronica"
   class="st30">
	<polygon
   id="n27_2_"
   class="st26"
   points="239.8,94.5 242.2,98.9 233.9,100.7 231.5,96.3  " />
	<polygon
   id="n8_2_"
   class="st26"
   points="151,125.7 158.6,127.2 163.8,136.9 157.8,138.1  " />
	<polygon
   id="n2_2_"
   class="st26"
   points="103.5,135.6 110.4,148.2 104.9,149.4 103.4,146.6 104.3,146.4 98.9,136.6  " />
</g>
<g
   id="active-servizi"
   class="st30">
	<polygon
   id="n4_2_"
   class="st22"
   points="121.4,131.8 128.2,144.4 119.7,146.2 112.9,133.6   " />
	<polygon
   id="n23_2_"
   class="st22"
   points="283.3,68 294.1,87.9 285.1,89.8 274.3,69.9  " />
	<polygon
   id="n39_2_"
   class="st22"
   points="98.7,124.7 101,128.9 96.5,129.9 95.1,127.3 94.9,127 94.2,125.6  " />
	<polygon
   id="n11_2_"
   class="st22"
   points="182.2,122.3 187.4,131.8 181.9,133 176.7,123.4  " />
	<polygon
   id="n2bis_2_"
   class="st22"
   points="98.6,136.9 103.6,146.2 102.7,146.4 104.4,149.5 102.8,149.8 101.1,146.7 99.4,147.1    96,140.7  " />
	<polygon
   id="n22b_2_"
   class="st22"
   points="279.8,101.7 291.9,104 301.8,101.9 306.6,110.9 287.3,115 285.1,110.9 283.5,108    278.8,103.3  " />
	<polygon
   id="n35"
   class="st22"
   points="322.9,104.3 326.7,111.3 318.1,113.1 314.3,106.2  " />
	<polygon
   id="n38_3_"
   class="st22"
   points="41,148.9 49.1,163.8 29.3,168 21.2,153.1  " />
	<polygon
   id="n1_2_"
   class="st22"
   points="95.7,141.1 99.2,147.5 100.9,147.2 102.4,149.9 100.9,150.2 100.7,149.7 92.9,151.4    89.7,145.4 93.6,144.6  " />
	<polygon
   id="n36A"
   class="st22"
   points="202.4,102.4 204.8,106.8 196.6,108.6 194.2,104.2  " />
</g>
<g
   id="active-casa"
   class="st30">
	
</g>
<g
   id="MLOC-shop">
	<polygon
   id="23"
   class="st33"
   points="283.3,68 294.1,87.9 285.1,89.8 274.3,69.9  "
   inkscape:label="23" />
	<polygon
   id="24"
   class="st33"
   points="273.8,70 284.7,89.9 274.8,92 273.3,89.3 267.7,87 263.4,79.2 268.3,78.2 264.8,71.9     "
   inkscape:label="24" />
	<polygon
   id="25"
   class="st33"
   points="254.6,74.1 258,80.4 263,79.3 267.1,86.9 255.4,89.4 247.8,75.5  "
   inkscape:label="25" />
	<polygon
   id="26B"
   class="st33"
   points="247.3,75.6 254.9,89.5 251,90.4 248.7,93.8 239.7,77.3 242.8,76.6  "
   inkscape:label="26B" />
	<polygon
   id="26"
   class="st33"
   points="239.2,77.4 248.6,94.7 250,97.3 242.7,98.8 240.3,94.4 240.1,94.1 231.8,78.9  "
   inkscape:label="26" />
	<polygon
   id="37"
   class="st33"
   points="267.2,93.1 271.3,100.7 261.3,102.8 257.2,95.3  "
   inkscape:label="37" />
	<polygon
   id="27"
   class="st33"
   points="239.8,94.5 242.2,98.9 233.9,100.7 231.5,96.3  "
   inkscape:label="27" />
	<polygon
   id="28"
   class="st33"
   points="231,96.4 233.4,100.8 225.2,102.5 222.8,98.1  "
   inkscape:label="28" />
	<polygon
   id="n36_1_"
   class="st33"
   points="242.1,76.4 239.5,71.5 249.1,69.5 222.9,21.2 97.5,47.9 93.5,40.5 29.8,54 60.1,109.6    86.3,104.1 89,109.1 80.5,110.9 83,115.4 85.3,114.9 88.1,120 92.2,127.5 94.5,127.1 93.6,125.4 99,124.2 101.5,128.8 196.1,108.7    196.1,108.7 193.5,104 202.7,102 205.2,106.7 224.7,102.6 222.1,97.9 231.3,95.9 239.6,94.2 231.2,78.7 239.5,76.9  " />
	<polygon
   id="36"
   class="st33"
   points="98.7,124.7 101,128.9 96.5,129.9 95.1,127.3 94.9,127 94.2,125.6  "
   inkscape:label="36" />
	<polygon
   id="29"
   class="st33"
   points="87.7,120.1 91.9,128 94.7,127.4 96.1,130 90.7,131.1 89.1,128.1 83.8,126.1 80,126.9    77.4,122.3  "
   inkscape:label="29" />
	<polygon
   id="33"
   class="st33"
   points="80.4,133.2 84.2,134.6 85.7,137.5 84.1,140 80.4,140.8 76.6,139.4 75.1,136.6 76.7,134     "
   inkscape:label="33" />
	<polygon
   id="30"
   class="st33"
   points="80.1,111 82.7,115.8 85.1,115.3 87.5,119.8 76.8,122 79.5,127 67.1,129.6 64.8,133.3    65.4,134.3 48,138 38.1,119.9  "
   inkscape:label="30" />
	<polygon
   id="20"
   class="st33"
   points="256,106.9 261.2,108.9 265,108.1 268.3,114.1 260.8,115.6  "
   inkscape:label="20" />
	<polygon
   id="18_19"
   class="st33"
   points="253.8,103.9 255.1,106.2 260.5,116.1 260.7,116.4 244.3,119.9 237.5,107.4  "
   inkscape:label="18_19" />
	<polygon
   id="16_17"
   class="st33"
   points="237,107.5 243.9,120 231.2,122.7 229.6,119.8 227.1,120.3 221.9,110.7  "
   inkscape:label="16_17" />
	<polygon
   id="15"
   class="st33"
   points="217.2,111.7 220.3,117.3 214.5,118.5 218.1,125.3 213.5,126.3 206.7,113.9  "
   inkscape:label="15" />
	<polygon
   id="14"
   class="st33"
   points="206.2,114 213,126.4 206.1,127.9 199.3,115.5  "
   inkscape:label="14" />
	<polygon
   id="13"
   class="st33"
   points="198.9,115.6 205.6,128 200,129.2 194.6,119.2 194.3,119.3 198.1,115.7  "
   inkscape:label="13" />
	<polygon
   id="12"
   class="st33"
   points="194.3,119.7 199.5,129.3 187.9,131.7 182.7,122.2 192.9,120  "
   inkscape:label="12" />
	<polygon
   id="11"
   class="st33"
   points="182.2,122.3 187.4,131.8 181.9,133 176.7,123.4  "
   inkscape:label="11" />
	<polygon
   id="10"
   class="st33"
   points="176.2,123.5 181.4,133.1 172.4,135 167.2,125.5  "
   inkscape:label="10" />
	<polygon
   id="09"
   class="st33"
   points="166.8,125.6 172,135.1 164.3,136.8 159.1,127.2  "
   inkscape:label="09" />
	<polygon
   id="31"
   class="st33"
   points="65.6,134.7 70.1,143 52.7,146.7 48.2,138.4  "
   inkscape:label="31" />
	<polygon
   id="32"
   class="st33"
   points="70.3,143.3 71.7,145.9 77.4,148.1 81.2,147.2 84.4,153.2 76.7,154.8 78.9,158.9    61.3,162.6 52.9,147  "
   inkscape:label="32" />
	<polygon
   id="08"
   class="st33"
   points="151,125.7 158.6,127.2 163.8,136.9 157.8,138.1  "
   inkscape:label="08" />
	<polygon
   id="07"
   class="st33"
   points="150.5,125.7 157.3,138.2 150.8,139.6 144,127  "
   inkscape:label="07" />
	<polygon
   id="06"
   class="st33"
   points="139.3,128 146.1,140.6 137.6,142.4 130.8,129.8  "
   inkscape:label="06" />
	<polygon
   id="05"
   class="st33"
   points="130.3,129.9 137.2,142.5 128.7,144.3 121.8,131.7  "
   inkscape:label="05" />
	<polygon
   id="04"
   class="st33"
   points="121.4,131.8 128.2,144.4 119.7,146.2 112.9,133.6  "
   inkscape:label="04" />
	<polygon
   id="03"
   class="st33"
   points="112.4,133.7 119.3,146.3 110.9,148.1 104,135.5  "
   inkscape:label="03" />
	<polygon
   id="02"
   class="st33"
   points="103.5,135.6 110.4,148.2 104.9,149.4 103.4,146.6 104.3,146.4 98.9,136.6  "
   inkscape:label="02" />
	<polygon
   id="02BIS"
   class="st33"
   points="98.6,136.9 103.6,146.2 102.7,146.4 104.4,149.5 102.8,149.8 101.1,146.7 99.4,147.1    96,140.7  "
   inkscape:label="02BIS" />
	<polygon
   id="01"
   class="st33"
   points="95.7,141.1 99.2,147.5 100.9,147.2 102.4,149.9 100.9,150.2 100.7,149.7 92.9,151.4    89.7,145.4 93.6,144.6  "
   inkscape:label="01" />
	<polygon
   id="22A"
   class="st33"
   points="297.8,94.5 301.6,101.6 291.9,103.6 279.9,101.4 278.4,98.7  "
   inkscape:label="22A" />
	<polygon
   id="21"
   class="st33"
   points="278.6,103.7 283.1,108.1 284.5,110.6 277,112.2 273.7,106.2 277.5,105.4  "
   inkscape:label="21" />
	<polygon
   id="22B"
   class="st33"
   points="279.8,101.7 291.9,104 301.8,101.9 306.6,110.9 287.3,115 285.1,110.9 283.5,108    278.8,103.3  "
   inkscape:label="22B" />
	<polygon
   id="34"
   class="st33"
   points="340.1,100.7 343.8,107.6 327.2,111.2 323.4,104.2  "
   inkscape:label="34" />
	<polygon
   id="35"
   class="st33"
   points="322.9,104.3 326.7,111.3 318.1,113.1 314.3,106.2  "
   inkscape:label="35" />
	<polygon
   id="n38_2_"
   class="st33"
   points="41,148.9 49.1,163.8 29.3,168 21.2,153.1  " />
	<polygon
   id="n36A_1_"
   class="st33"
   points="202.4,102.4 204.8,106.8 196.6,108.6 194.2,104.2  " />
</g>
<g
   id="MNOINT-ancore">
	<g
   id="g245">
		<path
   class="st34"
   d="M100.1,174.5L100.1,174.5L100.1,174.5h0.2h0.1h0.1h0.1h0.1h0.1h0.1h0.1h0.1h0.1h0.1l5.3,2    c0.3,0.1,0.6,0.4,0.7,0.6c0.1,0.2,0.1,0.5,0,0.7s-0.4,0.4-0.7,0.5c-0.3,0.1-0.7,0-1-0.1l-2.3-0.9l2.9,5.4c0.3,0.5,0,1.1-0.7,1.2    c-0.7,0.1-1.5-0.2-1.8-0.7l-2.9-5.4l-1,1.6c-0.1,0.2-0.4,0.4-0.7,0.5c-0.3,0.1-0.7,0-1-0.1c-0.7-0.3-1-0.9-0.7-1.3l2.2-3.6    l0.1-0.1l0,0l0,0l0,0l0,0l0,0l0,0h0.1l0,0h0.1h0.1h0.1l0,0L100.1,174.5z"
   id="path244" />
	</g>
	<g
   id="g246">
		<path
   class="st34"
   d="M282.6,135.7L282.6,135.7h0.1h0.1h0.1h0.1h0.1h0.1h0.1h0.1h0.1h0.1h0.1h0.1l5.3,2c0.3,0.1,0.6,0.4,0.7,0.6    c0.1,0.2,0.1,0.5,0,0.7s-0.4,0.4-0.7,0.5c-0.3,0.1-0.7,0-1-0.1l-2.3-0.9l2.9,5.4c0.3,0.5-0.1,1.1-0.7,1.2    c-0.7,0.1-1.5-0.1-1.8-0.7l-2.9-5.4l-1,1.6c-0.1,0.2-0.4,0.4-0.7,0.5c-0.3,0.1-0.7,0-1-0.1c-0.7-0.3-1-0.9-0.7-1.3l2.2-3.6    l0.1-0.1l0,0l0,0l0,0l0,0h0.1l0,0h0.1h0.1h0.1h0.1h0.1l0,0L282.6,135.7z"
   id="path245" />
	</g>
	<g
   id="g247">
		<path
   class="st34"
   d="M319.5,84.3c0.3-0.1,0.7,0,1,0.1c0.7,0.3,1,0.9,0.7,1.3l-1,1.6l7.1-1.5c0.7-0.1,1.5,0.2,1.8,0.7    s-0.1,1.1-0.7,1.2l-7.1,1.5l2.3,0.9c0.7,0.3,1,0.9,0.7,1.3c-0.1,0.2-0.4,0.4-0.7,0.5c-0.3,0.1-0.7,0-1-0.1l-5.3-2l-0.1-0.1h-0.1    H317h-0.1l0,0l0,0l0,0l0,0l0,0l0,0l0,0v-0.1l0,0l-0.1-0.2l0,0v-0.1l0,0v-0.1l0,0l0,0l0,0l0,0l0,0v-0.1l0,0l0,0V89l2.2-3.6    C318.9,84.6,319.1,84.4,319.5,84.3z"
   id="path246" />
	</g>
	<g
   id="Livello_2_00000075130876992923798440000006793353803110301586_">
		<g
   id="g261">
			<g
   id="g248">
				<path
   class="st35"
   d="M161.9,68.2c1-0.2,2.1,0.2,2.5,1c0.4,0.7-0.1,1.5-1,1.7c-1,0.2-2.1-0.2-2.5-1      C160.4,69.2,160.9,68.4,161.9,68.2z"
   id="path247" />
			</g>
			<g
   id="g249">
				<path
   class="st35"
   d="M156.2,69.4c1-0.2,2.1,0.2,2.5,1c0.4,0.7-0.1,1.5-1.1,1.7s-2.1-0.2-2.5-1      C154.7,70.4,155.2,69.6,156.2,69.4z"
   id="path248" />
			</g>
			<g
   id="g250">
				<path
   class="st35"
   d="M139,72.9c1.2-0.3,1.8,0.4,1.8,0.5l-2.6,0.6C138.2,73.9,137.8,73.2,139,72.9z"
   id="path249" />
			</g>
			<g
   id="g251">
				<path
   class="st35"
   d="M133.3,74.4c0.9-0.2,2,0.2,2.4,0.9c0.4,0.7-0.1,1.4-1,1.6s-2-0.2-2.4-0.9      C131.9,75.3,132.4,74.6,133.3,74.4z"
   id="path250" />
			</g>
			<g
   class="st0"
   id="g260">
				<g
   id="g252">
					<path
   class="st36"
   d="M126,71.9c0.7-0.1,1.5,0.2,1.8,0.7s0,1.1-0.7,1.2c-0.7,0.2-1.5-0.2-1.8-0.7S125.3,72.1,126,71.9z"
   id="path251" />
				</g>
				<g
   id="g253">
					<polygon
   class="st36"
   points="129,79.6 126.1,74.4 128.2,73.9 131.1,79.2      "
   id="polygon252" />
				</g>
				<g
   id="g254">
					<path
   class="st36"
   d="M166.8,65.5c1.9-0.4,4.5,0.3,5.5,2.1c1,1.8-0.6,3.3-2.3,3.7c-0.8,0.2-1.6,0.1-1.6,0.1l-1.6-2.2       c0,0,1,0.8,2.3,0.5c1.4-0.3,1.2-1.4,1-1.7c-0.2-0.3-1.2-1.2-2.5-1c-1.3,0.3-1.5,1.2-1.2,1.7l2.3,4.2l-2,0.4l-0.9-1.7       c0,0-0.6,0.5-1.7,0.8c-1.7,0.4-3.2-0.3-3.3-0.3c0,0.1-0.5,1.1-2.2,1.5s-3.1-0.2-3.2-0.2c0,0.1-0.6,1.1-2.3,1.5       c-1.1,0.2-4.4,0-5.4-1.9c-0.2-0.4-0.4-0.9-0.4-1.3c-0.1,0-0.3,0-0.5,0c-0.4,0.1-0.7,0.2-1,0.4c-0.4,0.3-0.4,1-0.2,1.3l1.3,2.4       l-2.1,0.4l-1.2-2.2l-5,1.1c0.2,0.4,1.3,0.9,2.4,0.7c1.1-0.2,1.3-1.1,1.3-1.1l1.8,0.4c-0.2,1-1.1,1.9-2.5,2.2       c-1.1,0.2-2.3,0.1-3.4-0.4c-0.4,0.7-1.1,1.2-2.2,1.4c-0.8,0.2-1.7,0.1-2.5-0.1l1,1.9l-2.1,0.4l-3.7-6.7l2.1-0.4l0.2,0.4       c0.4-0.5,1.1-0.8,1.9-1c1.1-0.2,2.3-0.1,3.2,0.3c0.4-0.7,1.2-1.3,2.3-1.5c1.5-0.3,3.1,0.1,4.2,0.8l-0.8-1.4l2.1-0.4l0.4,0.8       c0.1-0.2,0.4-0.6,0.8-0.9c0.5-0.4,1.1-0.5,1.1-0.6l0.8,1.5c0.1-1.2,1.3-2,2.7-2.3c0.8-0.2,1.5-0.1,1.5-0.1l1.5,2.1       c-0.1,0-1-0.7-2.3-0.4c-1.3,0.3-1.3,1.2-1.1,1.7s1.2,1.3,2.6,1c1.4-0.3,1.4-1.2,1.1-1.8c-0.8-1.4,0.1-3,2.3-3.5       c1.7-0.4,3.2,0.2,3.3,0.3c0-0.1,0.6-1.2,2.3-1.6s3.2,0.3,3.3,0.3C164.4,66.9,164.9,65.9,166.8,65.5z M157.6,72.1       c1-0.2,1.5-1,1.1-1.7s-1.5-1.2-2.5-1s-1.5,1-1.1,1.7C155.5,71.9,156.6,72.3,157.6,72.1 M163.3,70.9c1-0.2,1.5-1,1-1.7       c-0.4-0.7-1.5-1.2-2.5-1s-1.5,1-1.1,1.7C161.2,70.7,162.3,71.1,163.3,70.9 M134.7,76.9c0.9-0.2,1.4-0.9,1-1.6s-1.5-1.1-2.4-0.9       s-1.4,0.9-1,1.6S133.8,77.1,134.7,76.9 M138.2,73.9l2.6-0.6c0,0-0.6-0.7-1.8-0.5C137.8,73.2,138.2,73.9,138.2,73.9"
   id="path253" />
				</g>
				<g
   id="g255">
					<path
   class="st35"
   d="M171.8,61c1.6-0.3,3.4,0.4,4.1,1.6l3.8,6.9c0.6,1.2-0.1,2.5-1.7,2.8l-49.3,10.5c-1.6,0.3-3.4-0.4-4.1-1.6       l-3.8-6.9c-0.6-1.2,0.1-2.5,1.7-2.8L171.8,61z M169.9,71.3c1.7-0.4,3.3-1.9,2.3-3.7c-1-1.8-3.6-2.5-5.5-2.1s-2.4,1.5-2.5,1.5       s-1.6-0.7-3.3-0.3c-1.7,0.4-2.3,1.5-2.3,1.6c-0.1,0-1.6-0.6-3.3-0.3c-2.2,0.5-3.1,2.1-2.3,3.5c0.3,0.6,0.3,1.5-1.1,1.8       c-1.4,0.3-2.3-0.5-2.6-1c-0.2-0.5-0.2-1.4,1.1-1.7c1.3-0.3,2.2,0.4,2.3,0.4l-1.5-2.1c0,0-0.7-0.1-1.5,0.1       c-1.4,0.3-2.5,1.1-2.7,2.3l-0.8-1.5c0,0-0.7,0.2-1.1,0.6c-0.4,0.3-0.7,0.7-0.8,0.9l-0.4-0.8l-2.1,0.4l0.8,1.4       c-1.1-0.8-2.7-1.2-4.2-0.8c-1.1,0.2-1.9,0.8-2.3,1.5c-1-0.4-2.1-0.6-3.2-0.3c-0.8,0.2-1.5,0.5-1.9,1l-0.2-0.4l-2.1,0.4l3.7,6.7       l2.1-0.4l-1-1.9c0.8,0.2,1.7,0.3,2.5,0.1c1-0.2,1.8-0.8,2.2-1.4c1,0.4,2.2,0.6,3.4,0.4c1.4-0.3,2.3-1.2,2.5-2.2l-1.8-0.4       c0,0-0.2,0.9-1.3,1.1s-2.2-0.3-2.4-0.7l5-1.1l1.2,2.2l2.1-0.4l-1.3-2.4c-0.1-0.4-0.1-1,0.2-1.3c0.2-0.2,0.6-0.3,1-0.4       c0.2,0,0.3-0.1,0.5,0c0,0.4,0.1,0.8,0.4,1.3c1.1,2,4.3,2.2,5.4,1.9c1.7-0.4,2.3-1.4,2.3-1.5c0.1,0,1.5,0.6,3.2,0.2       s2.2-1.4,2.2-1.5c0.1,0,1.7,0.7,3.3,0.3c1-0.2,1.6-0.7,1.7-0.8l0.9,1.7l2-0.4l-2.3-4.2c-0.3-0.5-0.1-1.5,1.2-1.7       c1.3-0.3,2.3,0.6,2.5,1c0.2,0.3,0.4,1.4-1,1.7c-1.4,0.3-2.3-0.4-2.3-0.5l1.6,2.2C168.3,71.4,169.2,71.4,169.9,71.3 M131.1,79.2       l-2.8-5.2l-2.1,0.4l2.8,5.2L131.1,79.2 M127.1,73.8c0.7-0.1,1-0.7,0.7-1.2c-0.3-0.5-1.1-0.8-1.8-0.7c-0.7,0.2-1.1,0.7-0.8,1.2       C125.5,73.7,126.3,74,127.1,73.8 M171.4,65.6c0.5-0.1,0.7-0.5,0.5-0.8s-0.7-0.5-1.2-0.4s-0.7,0.5-0.5,0.8       S170.9,65.7,171.4,65.6"
   id="path254" />
				</g>
				<g
   id="g256">
					<path
   class="st36"
   d="M171.1,65.3l-0.2-0.3h0.2l0.4,0.3h0.2l-0.4-0.3c0.1,0,0.2-0.1,0.1-0.2c-0.1-0.1-0.2-0.2-0.4-0.1l-0.4,0.1       l0.4,0.7L171.1,65.3z M170.7,64.7h0.2l0.3,0.1c0,0.1,0,0.1-0.1,0.1H171h-0.1L170.7,64.7"
   id="path255" />
				</g>
				<g
   id="g257">
					<path
   class="st36"
   d="M170.7,64.3c0.5-0.1,1,0.1,1.2,0.4s0,0.7-0.5,0.8c-0.5,0.1-1-0.1-1.2-0.4S170.2,64.4,170.7,64.3z        M171.3,65.5c0.4-0.1,0.6-0.4,0.4-0.7c-0.2-0.3-0.6-0.5-1-0.4s-0.6,0.4-0.4,0.7C170.5,65.4,170.9,65.6,171.3,65.5"
   id="path256" />
				</g>
				<g
   id="g258">
					<path
   class="st35"
   d="M170.8,64.4c0.4-0.1,0.8,0.1,1,0.4s0,0.6-0.4,0.7s-0.8-0.1-1-0.4C170.2,64.8,170.4,64.5,170.8,64.4z        M171.6,65.2l-0.4-0.3c0.1,0,0.2-0.1,0.1-0.2c-0.1-0.1-0.2-0.2-0.4-0.1l-0.4,0.1l0.4,0.7h0.1l-0.2-0.3h0.2l0.4,0.3L171.6,65.2"
   id="path257" />
				</g>
				<g
   id="g259">
					<path
   class="st35"
   d="M171.2,64.7l-0.3-0.1h-0.2l0.1,0.2h0.1h0.1C171.2,64.8,171.3,64.8,171.2,64.7z"
   id="path258" />
				</g>
			</g>
		</g>
	</g>
</g>
<g
   id="MNOINT-numeri"
   class="st30">
	<g
   class="st37"
   id="g349">
		<g
   id="g264">
			<g
   id="g262">
				<path
   class="st38"
   d="M173.5,105c0.3-0.1,0.5,0.1,0.6,0.2c0.1,0.2,0,0.4-0.3,0.4c-0.1,0-0.2,0-0.3,0c-0.2-0.1-0.3-0.2-0.4-0.4      c-0.2-0.3-0.1-0.5,0.2-0.6c0.2,0,0.4,0,0.6,0.2h-0.1c-0.1-0.1-0.2-0.1-0.4-0.1s-0.3,0.2-0.1,0.5      C173.3,105.1,173.4,105,173.5,105z M173.8,105.6c0.2,0,0.2-0.2,0.2-0.3c-0.1-0.1-0.2-0.2-0.4-0.2s-0.2,0.2-0.2,0.3      C173.4,105.5,173.6,105.6,173.8,105.6"
   id="path261" />
			</g>
			<g
   id="g263">
				<path
   class="st38"
   d="M172.2,104.9c0.2-0.1,0.5,0,0.6,0.2c0.1,0.1,0,0.2-0.1,0.2c0.1,0,0.3,0.1,0.4,0.2c0.1,0.2,0,0.3-0.3,0.4      s-0.5,0-0.6-0.2h0.2c0.1,0.1,0.2,0.2,0.4,0.1c0.2,0,0.2-0.1,0.2-0.3c-0.1-0.1-0.2-0.2-0.4-0.1h-0.1l-0.1-0.1h0.1      c0.2,0,0.2-0.1,0.2-0.2C172.5,105,172.4,104.9,172.2,104.9c-0.1,0.1-0.2,0.2-0.1,0.4h-0.2C171.8,105.1,171.9,104.9,172.2,104.9z      "
   id="path262" />
			</g>
		</g>
		<g
   id="g267">
			<g
   id="g265">
				<path
   class="st38"
   d="M55.2,132.1c0.2-0.1,0.5,0,0.6,0.2c0.1,0.1,0,0.2-0.1,0.3c0.2,0,0.3,0.1,0.4,0.2c0.1,0.2,0,0.3-0.3,0.4      c-0.3,0.1-0.5,0-0.6-0.2h0.1c0.1,0.1,0.2,0.2,0.4,0.1c0.2,0,0.2-0.1,0.2-0.3c-0.1-0.1-0.2-0.2-0.4-0.1h-0.1l-0.1-0.1h0.1      c0.2,0,0.2-0.1,0.2-0.2c-0.1-0.1-0.2-0.1-0.4-0.1c-0.1,0-0.2,0.1-0.2,0.2h-0.2C54.8,132.3,54.9,132.2,55.2,132.1z"
   id="path264" />
			</g>
			<g
   id="g266">
				<path
   class="st38"
   d="M56.3,131.9c0.3-0.1,0.6,0.1,0.7,0.4c0.2,0.3,0.1,0.5-0.2,0.6s-0.6-0.1-0.8-0.4      C55.9,132.2,56,132,56.3,131.9z M56.8,132.8c0.2,0,0.2-0.2,0.1-0.5c-0.1-0.3-0.3-0.4-0.5-0.3c-0.2,0-0.2,0.2-0.1,0.5      C56.4,132.7,56.6,132.8,56.8,132.8"
   id="path265" />
			</g>
		</g>
		<g
   id="g268">
			<path
   class="st38"
   d="M86.6,124.1c0.2,0.1,0.3,0.2,0.4,0.4c0.2,0.3,0.1,0.5-0.2,0.6c-0.2,0-0.5,0-0.6-0.2h0.1     c0.1,0.1,0.2,0.1,0.4,0.1c0.2,0,0.2-0.2,0.1-0.5c0,0.1-0.1,0.2-0.3,0.2c-0.3,0.1-0.5-0.1-0.6-0.2c-0.1-0.2,0-0.4,0.3-0.4     C86.4,124.1,86.5,124.1,86.6,124.1z M86.6,124.7c0.2,0,0.2-0.2,0.2-0.3c-0.1-0.1-0.2-0.2-0.4-0.2c-0.2,0-0.2,0.2-0.2,0.3     C86.3,124.6,86.4,124.7,86.6,124.7"
   id="path267" />
		</g>
		<g
   id="g269">
			<path
   class="st38"
   d="M85.3,124.3c0.2-0.1,0.5,0,0.6,0.2c0.1,0.1,0,0.2-0.1,0.4l-0.1,0.1c-0.1,0.1-0.2,0.2-0.1,0.3l0.7-0.1     l0.1,0.1l-0.9,0.2v-0.1c-0.1-0.1-0.1-0.3,0.1-0.4l0.1-0.1c0.1-0.1,0.2-0.2,0.1-0.3c-0.1-0.1-0.2-0.2-0.4-0.1     c-0.2,0-0.2,0.1-0.2,0.3H85C84.9,124.5,85,124.4,85.3,124.3z"
   id="path268" />
		</g>
		<g
   id="g270">
			<path
   class="st38"
   d="M80.8,136.6c0.2-0.1,0.5,0,0.6,0.2c0.1,0.1,0,0.2-0.1,0.3c0.1,0,0.3,0.1,0.4,0.2c0.1,0.2,0,0.3-0.3,0.4     c-0.3,0.1-0.5,0-0.6-0.2h0.1c0.1,0.1,0.2,0.2,0.4,0.1c0.2,0,0.2-0.1,0.2-0.3s-0.2-0.2-0.4-0.1H81l-0.1-0.1H81     c0.2,0,0.2-0.1,0.2-0.2s-0.2-0.1-0.4-0.1c-0.1,0-0.2,0.1-0.2,0.2h-0.2C80.4,136.8,80.5,136.6,80.8,136.6z"
   id="path269" />
		</g>
		<g
   id="g271">
			<path
   class="st38"
   d="M79.8,136.8c0.2-0.1,0.5,0,0.6,0.2c0.1,0.1,0,0.2-0.1,0.2c0.1,0,0.3,0.1,0.4,0.2c0.1,0.2,0,0.3-0.3,0.4     c-0.3,0.1-0.5,0-0.6-0.2H80c0.1,0.1,0.2,0.2,0.4,0.1c0.2,0,0.2-0.1,0.2-0.3c-0.1-0.1-0.2-0.2-0.4-0.1h-0.1l-0.1-0.1h0.1     c0.2,0,0.2-0.1,0.2-0.2c-0.1-0.1-0.2-0.1-0.3-0.1c-0.2,0-0.2,0.1-0.2,0.2h-0.1C79.4,137,79.5,136.8,79.8,136.8z"
   id="path270" />
		</g>
		<g
   id="g272">
			<path
   class="st38"
   d="M97.9,142.8c0.2-0.1,0.5,0,0.6,0.2c0.1,0.1,0,0.2-0.1,0.4l-0.1,0.1c-0.1,0.1-0.2,0.2-0.1,0.3l0.7-0.1     l0.1,0.1l-0.9,0.2l0,0c-0.1-0.1-0.1-0.3,0.1-0.4l0.1-0.1c0.1-0.1,0.2-0.2,0.1-0.3C98.2,143,98.1,142.9,97.9,142.8     c-0.1,0.1-0.2,0.2-0.1,0.4h-0.2C97.5,143,97.6,142.9,97.9,142.8z"
   id="path271" />
		</g>
		<g
   id="g273">
			<path
   class="st38"
   d="M100.5,142.3c0.4-0.1,0.6,0,0.7,0.2H101C101,142.4,100.8,142.3,100.5,142.3c-0.1,0.1-0.2,0.2-0.2,0.3     c0.1,0.1,0.1,0.1,0.4,0.1h0.1c0.3,0,0.5,0.1,0.6,0.2c0.1,0.2,0,0.3-0.3,0.4c-0.3,0.1-0.6,0-0.7-0.2h0.2c0.1,0.2,0.3,0.2,0.5,0.2     s0.3-0.1,0.2-0.3c-0.1-0.1-0.2-0.1-0.4-0.1h-0.1c-0.2,0-0.5,0-0.6-0.2S100.2,142.3,100.5,142.3z"
   id="path272" />
		</g>
		<g
   id="g274">
			<path
   class="st38"
   d="M99.5,143c0.2,0,0.3,0.1,0.4,0.2c0.1,0.2,0,0.3-0.3,0.4l-0.6,0.1l-0.5-1l0.5-0.1c0.3-0.1,0.5,0,0.5,0.2     C99.6,142.9,99.6,143,99.5,143z M99.5,143.5c0.2,0,0.2-0.1,0.2-0.2c-0.1-0.1-0.2-0.2-0.4-0.1l-0.4,0.1l0.2,0.3L99.5,143.5      M98.7,142.8l0.2,0.3l0.4-0.1c0.2,0,0.2-0.1,0.2-0.2c-0.1-0.1-0.2-0.1-0.3-0.1L98.7,142.8"
   id="path273" />
		</g>
		<g
   id="g275">
			<polygon
   class="st38"
   points="99.8,142.4 100.4,143.4 100.2,143.4 99.7,142.5    "
   id="polygon274" />
		</g>
		<g
   id="g276">
			<path
   class="st38"
   d="M95,146.7l0.5,1h-0.2L95,147l-0.3,0.1l-0.1-0.1l0,0c0.2,0,0.2-0.1,0.2-0.2L95,146.7z"
   id="path275" />
		</g>
		<g
   id="g277">
			<path
   class="st38"
   d="M58.7,141.3c0.2-0.1,0.5,0,0.6,0.2c0.1,0.1,0,0.2-0.1,0.2c0.1,0,0.3,0.1,0.4,0.2c0.1,0.2,0,0.3-0.3,0.4     c-0.3,0.1-0.5,0-0.6-0.2h0.1c0.1,0.1,0.2,0.2,0.4,0.1c0.2,0,0.2-0.1,0.2-0.3c-0.1-0.1-0.2-0.2-0.4-0.1h-0.1l-0.1-0.1h0.1     c0.2,0,0.2-0.1,0.2-0.2C59,141.4,58.9,141.4,58.7,141.3c-0.1,0.1-0.2,0.2-0.2,0.3h-0.2C58.3,141.5,58.4,141.3,58.7,141.3z"
   id="path276" />
		</g>
		<g
   id="g278">
			<path
   class="st38"
   d="M59.7,141.1l0.5,1h-0.1l-0.4-0.7l-0.3,0.1l-0.1-0.1l0,0c0.2,0,0.2-0.1,0.2-0.2L59.7,141.1z"
   id="path277" />
		</g>
		<g
   id="g279">
			<path
   class="st38"
   d="M64.9,152.8c0.2-0.1,0.5,0,0.6,0.2c0.1,0.1,0,0.2-0.1,0.3c0.1,0,0.3,0.1,0.4,0.2c0.1,0.2,0,0.3-0.3,0.4     c-0.3,0.1-0.5,0-0.6-0.2H65c0.1,0.1,0.2,0.2,0.4,0.2c0.2,0,0.2-0.1,0.2-0.3c-0.1-0.1-0.2-0.2-0.4-0.1h-0.1l-0.1-0.1h0.1     c0.2,0,0.2-0.1,0.2-0.2C65.3,152.9,65.2,152.8,64.9,152.8c-0.1,0.1-0.2,0.2-0.1,0.4h-0.2C64.6,153,64.7,152.8,64.9,152.8z"
   id="path278" />
		</g>
		<g
   id="g280">
			<path
   class="st38"
   d="M66,152.6c0.2-0.1,0.5,0,0.6,0.2c0.1,0.1,0,0.2-0.1,0.4l-0.1,0.1c-0.1,0.1-0.2,0.2-0.1,0.3l0.7-0.1l0.1,0.1     l-0.9,0.2l0,0c-0.1-0.1-0.1-0.3,0.1-0.4l0.1-0.1c0.1-0.1,0.2-0.2,0.1-0.3s-0.2-0.2-0.4-0.1c-0.2,0-0.2,0.1-0.2,0.3h-0.1     C65.6,152.8,65.7,152.6,66,152.6z"
   id="path279" />
		</g>
		<g
   id="g281">
			<path
   class="st38"
   d="M104.7,141.4c0.2-0.1,0.5,0,0.6,0.2c0.1,0.1,0,0.2-0.1,0.4l-0.1,0.1c-0.1,0.1-0.2,0.2-0.1,0.3l0.7-0.1     l0.1,0.1l-0.9,0.2v-0.1c-0.1-0.1-0.1-0.3,0.1-0.4l0.1-0.1c0.1-0.1,0.2-0.2,0.1-0.3C105.1,141.5,105,141.4,104.7,141.4     c-0.1,0.1-0.2,0.2-0.1,0.4h-0.1C104.4,141.6,104.5,141.4,104.7,141.4z"
   id="path280" />
		</g>
		<g
   id="g282">
			<path
   class="st38"
   d="M110.8,140.1c0.2-0.1,0.5,0,0.6,0.2c0.1,0.1,0,0.2-0.1,0.3c0.2,0,0.3,0.1,0.4,0.2c0.1,0.2,0,0.3-0.3,0.4     c-0.3,0.1-0.5,0-0.6-0.2h0.1c0.1,0.1,0.2,0.2,0.4,0.2c0.2,0,0.2-0.1,0.2-0.3c-0.1-0.1-0.2-0.2-0.4-0.1H111l-0.1-0.1h0.1     c0.2,0,0.2-0.1,0.2-0.2C111.1,140.2,111,140.2,110.8,140.1c-0.1,0.1-0.2,0.2-0.1,0.4h-0.2C110.4,140.3,110.5,140.1,110.8,140.1z"
   id="path281" />
		</g>
		<g
   id="g283">
			<path
   class="st38"
   d="M138,134.7c0.3-0.1,0.5,0,0.6,0.2s0,0.4-0.3,0.4c-0.1,0-0.2,0-0.3,0c-0.2-0.1-0.3-0.2-0.4-0.4     c-0.2-0.3-0.1-0.5,0.2-0.6c0.2,0,0.4,0,0.6,0.2h-0.1c-0.1-0.1-0.2-0.1-0.4-0.1s-0.3,0.2-0.1,0.5     C137.8,134.8,137.9,134.7,138,134.7z M138.3,135.3c0.2,0,0.2-0.2,0.2-0.3c-0.1-0.1-0.2-0.2-0.4-0.2s-0.2,0.1-0.2,0.3     S138.1,135.3,138.3,135.3"
   id="path282" />
		</g>
		<g
   id="g284">
			<path
   class="st38"
   d="M150.6,131.6L150.6,131.6c-0.1,0.4-0.1,0.8,0.1,1.1h-0.2c-0.2-0.3-0.2-0.6,0-1l-0.7,0.1l-0.1-0.1     L150.6,131.6z"
   id="path283" />
		</g>
		<g
   id="g285">
			<path
   class="st38"
   d="M97,127c0.2-0.1,0.5,0,0.6,0.2c0.1,0.1,0,0.2-0.1,0.2c0.1,0,0.3,0.1,0.4,0.2c0.1,0.2,0,0.3-0.3,0.4     s-0.5,0-0.6-0.2h0.2c0.1,0.1,0.2,0.2,0.4,0.1c0.2,0,0.2-0.1,0.2-0.3c-0.1-0.1-0.2-0.2-0.4-0.1h-0.1l-0.1-0.1h0.1     c0.2,0,0.2-0.1,0.2-0.2C97.3,127.1,97.2,127.1,97,127c-0.1,0.1-0.2,0.2-0.1,0.4h-0.2C96.6,127.2,96.7,127,97,127z"
   id="path284" />
		</g>
		<g
   id="g286">
			<path
   class="st38"
   d="M157.3,130.7c0.2,0,0.3,0.1,0.4,0.2c0.1,0.2,0,0.3-0.3,0.4c-0.3,0.1-0.5,0-0.6-0.2c-0.1-0.1,0-0.2,0.1-0.3     c-0.1,0-0.2-0.1-0.3-0.2c-0.1-0.2,0-0.3,0.3-0.4c0.2,0,0.5,0,0.6,0.2C157.5,130.6,157.4,130.7,157.3,130.7z M157.3,131.2     c0.2,0,0.3-0.1,0.2-0.3c-0.1-0.1-0.2-0.2-0.4-0.1c-0.2,0-0.3,0.1-0.2,0.3C157,131.2,157.2,131.3,157.3,131.2 M156.7,130.6     c0.1,0.1,0.2,0.1,0.4,0.1c0.1,0,0.2-0.1,0.2-0.2c-0.1-0.1-0.2-0.1-0.4-0.1C156.7,130.4,156.7,130.5,156.7,130.6"
   id="path285" />
		</g>
		<g
   id="g289">
			<g
   id="g287">
				<path
   class="st38"
   d="M34.7,158.1c0.2-0.1,0.5,0,0.6,0.2c0.1,0.1,0,0.2-0.1,0.2c0.1,0,0.3,0.1,0.4,0.2c0.1,0.2,0,0.3-0.3,0.4      c-0.3,0.1-0.5,0-0.6-0.2h0.2c0.1,0.1,0.2,0.2,0.4,0.1c0.2,0,0.2-0.1,0.2-0.3c-0.1-0.1-0.2-0.2-0.4-0.1H35l-0.1-0.1H35      c0.2,0,0.2-0.1,0.2-0.2C35.1,158.2,35,158.2,34.7,158.1c-0.1,0.1-0.2,0.2-0.1,0.4h-0.2C34.4,158.3,34.5,158.2,34.7,158.1z"
   id="path286" />
			</g>
			<g
   id="g288">
				<path
   class="st38"
   d="M36.3,158.3c0.2,0,0.3,0.1,0.4,0.2c0.1,0.2,0,0.3-0.3,0.4c-0.3,0.1-0.5,0-0.6-0.2c-0.1-0.1,0-0.2,0.1-0.3      c-0.1,0-0.2-0.1-0.3-0.2c-0.1-0.2,0-0.3,0.3-0.4c0.2,0,0.5,0,0.6,0.2C36.4,158.1,36.4,158.2,36.3,158.3z M36.3,158.8      c0.2,0,0.3-0.1,0.2-0.3c-0.1-0.1-0.2-0.2-0.4-0.1c-0.2,0-0.3,0.1-0.2,0.3C35.9,158.8,36.1,158.8,36.3,158.8 M35.7,158.2      c0.1,0.1,0.2,0.1,0.4,0.1c0.1,0,0.2-0.1,0.2-0.2c-0.1-0.1-0.2-0.1-0.4-0.1S35.6,158.1,35.7,158.2"
   id="path287" />
			</g>
		</g>
		<g
   id="g290">
			<path
   class="st38"
   d="M164.7,128.7c0.2,0.1,0.3,0.2,0.4,0.4c0.2,0.3,0.1,0.6-0.2,0.6c-0.2,0-0.5,0-0.6-0.2h0.1     c0.1,0.1,0.2,0.1,0.4,0.1s0.2-0.2,0.1-0.5c0,0.1-0.1,0.2-0.3,0.2c-0.3,0.1-0.5,0-0.6-0.2s0-0.4,0.3-0.4     C164.5,128.7,164.6,128.7,164.7,128.7z M164.7,129.3c0.2,0,0.3-0.2,0.2-0.3s-0.2-0.2-0.4-0.2s-0.2,0.2-0.2,0.3     C164.4,129.2,164.5,129.3,164.7,129.3"
   id="path289" />
		</g>
		<g
   id="g291">
			<path
   class="st38"
   d="M98.3,126.7c0.2,0.1,0.3,0.2,0.4,0.4c0.2,0.3,0.1,0.6-0.2,0.6c-0.2,0-0.5,0-0.6-0.2H98     c0.1,0.1,0.2,0.1,0.4,0.1c0.2,0,0.2-0.2,0.1-0.5c0,0.1-0.1,0.2-0.3,0.2c-0.3,0.1-0.5,0-0.6-0.2s0-0.4,0.3-0.4     C98,126.7,98.2,126.7,98.3,126.7z M98.2,127.3c0.2,0,0.3-0.2,0.2-0.3c-0.1-0.1-0.2-0.2-0.4-0.2c-0.2,0-0.2,0.2-0.2,0.3     C97.9,127.2,98.1,127.3,98.2,127.3"
   id="path290" />
		</g>
		<g
   id="g292">
			<path
   class="st38"
   d="M173.3,126.8c0.3-0.1,0.6,0.1,0.7,0.4c0.2,0.3,0.1,0.6-0.2,0.6c-0.3,0.1-0.6-0.1-0.8-0.4     C172.9,127.1,173,126.9,173.3,126.8z M173.8,127.7c0.2,0,0.2-0.2,0.1-0.5c-0.1-0.3-0.3-0.4-0.5-0.3c-0.2,0-0.2,0.2-0.1,0.5     C173.4,127.6,173.6,127.8,173.8,127.7"
   id="path291" />
		</g>
		<g
   id="g293">
			<path
   class="st38"
   d="M172.6,127l0.5,1h-0.2l-0.4-0.7l-0.3,0.1v-0.1l0,0c0.2,0,0.2-0.1,0.2-0.2L172.6,127z"
   id="path292" />
		</g>
		<g
   id="g294">
			<path
   class="st38"
   d="M180.3,125.3l0.5,1h-0.2l-0.4-0.7l-0.3,0.1v-0.1l0,0c0.2,0,0.2-0.1,0.2-0.2L180.3,125.3z"
   id="path293" />
		</g>
		<g
   id="g295">
			<path
   class="st38"
   d="M180.9,125.2l0.5,1h-0.2l-0.4-0.7l-0.3,0.1v-0.1l0,0c0.2,0,0.2-0.1,0.2-0.2L180.9,125.2z"
   id="path294" />
		</g>
		<g
   id="g296">
			<path
   class="st38"
   d="M188.8,123.5l0.5,1h-0.1l-0.4-0.7l-0.3,0.1v-0.1l0,0c0.2,0,0.2-0.1,0.2-0.2L188.8,123.5z"
   id="path295" />
		</g>
		<g
   id="g297">
			<path
   class="st38"
   d="M189.5,123.4c0.2-0.1,0.5,0,0.6,0.2c0.1,0.1,0,0.2-0.1,0.4l-0.1,0.1c-0.1,0.1-0.2,0.2-0.1,0.3l0.7-0.1     l0.1,0.1l-0.9,0.2v-0.1c-0.1-0.1-0.1-0.3,0.1-0.4l0.1-0.1c0.1-0.1,0.2-0.2,0.1-0.3C189.8,123.5,189.7,123.4,189.5,123.4     c-0.1,0.1-0.2,0.2-0.1,0.4h-0.2C189.1,123.6,189.2,123.4,189.5,123.4z"
   id="path296" />
		</g>
		<g
   id="g298">
			<path
   class="st38"
   d="M199.2,121.3c0.2-0.1,0.5,0,0.6,0.2c0.1,0.1,0,0.2-0.1,0.3c0.2,0,0.3,0.1,0.4,0.2c0.1,0.2,0,0.3-0.3,0.4     s-0.5,0-0.6-0.2h0.2c0.1,0.1,0.2,0.2,0.4,0.2s0.2-0.1,0.2-0.3c-0.1-0.1-0.2-0.2-0.4-0.1h-0.1l-0.1-0.1h0.1c0.2,0,0.2-0.1,0.2-0.2     C199.6,121.4,199.4,121.4,199.2,121.3c-0.1,0.1-0.2,0.2-0.1,0.4H199C198.8,121.5,198.9,121.3,199.2,121.3z"
   id="path297" />
		</g>
		<g
   id="g299">
			<path
   class="st38"
   d="M198.5,121.5l0.5,1h-0.1l-0.4-0.7l-0.3,0.1v-0.1l0,0c0.2,0,0.2-0.1,0.2-0.2L198.5,121.5z"
   id="path298" />
		</g>
		<g
   id="g300">
			<path
   class="st38"
   d="M206.4,120.5h0.2l0.1,0.1h-0.2l0.1,0.2h-0.2L206.4,120.5l-0.8,0.2l-0.1-0.1l0.3-0.8h0.2L206.4,120.5z      M206.2,120.5L206,120l-0.2,0.6L206.2,120.5"
   id="path299" />
		</g>
		<g
   id="g301">
			<path
   class="st38"
   d="M205.1,120.1l0.5,1h-0.2l-0.4-0.7l-0.3,0.1v-0.1l0,0c0.2,0,0.2-0.1,0.2-0.2L205.1,120.1z"
   id="path300" />
		</g>
		<g
   id="g302">
			<polygon
   class="st38"
   points="233.1,114.7 233.1,114.8 232.6,114.9 232.5,114.8    "
   id="polygon301" />
		</g>
		<g
   id="g303">
			<path
   class="st38"
   d="M231.8,114.8c0.3-0.1,0.5,0,0.6,0.2s0,0.4-0.3,0.4c-0.1,0-0.2,0-0.3,0c-0.2-0.1-0.3-0.2-0.4-0.4     c-0.2-0.3-0.1-0.6,0.2-0.6c0.2,0,0.4,0,0.6,0.2h-0.1c-0.1-0.1-0.2-0.1-0.4-0.1s-0.3,0.2-0.1,0.5     C231.6,114.9,231.7,114.8,231.8,114.8z M232.1,115.3c0.2,0,0.2-0.2,0.2-0.3c-0.1-0.1-0.2-0.2-0.4-0.2s-0.3,0.2-0.2,0.3     C231.8,115.3,232,115.3,232.1,115.3"
   id="path302" />
		</g>
		<g
   id="g304">
			<path
   class="st38"
   d="M230.9,114.6l0.5,1h-0.1l-0.4-0.7l-0.3,0.1v-0.1l0,0c0.2,0,0.2-0.1,0.2-0.2L230.9,114.6z"
   id="path303" />
		</g>
		<g
   id="g305">
			<path
   class="st38"
   d="M233.3,114.1l0.5,1h-0.2l-0.4-0.7l-0.3,0.1v-0.1l0,0c0.2,0,0.2-0.1,0.2-0.2L233.3,114.1z"
   id="path304" />
		</g>
		<g
   id="g306">
			<path
   class="st38"
   d="M234.3,113.9L234.3,113.9c-0.1,0.4-0.1,0.8,0.1,1.1h-0.2C234,114.7,234,114.4,234.3,113.9l-0.8,0.2     l-0.1-0.1L234.3,113.9z"
   id="path305" />
		</g>
		<g
   class="st0"
   id="g309">
			<g
   id="g307">
				<path
   class="st38"
   d="M248.7,110.8l0.5,1H249l-0.4-0.7l-0.3,0.1v-0.1l0,0c0.2,0,0.2-0.1,0.2-0.2L248.7,110.8z"
   id="path306" />
			</g>
			<g
   id="g308">
				<polygon
   class="st38"
   points="248.5,111.4 248.6,111.5 248,111.6 248,111.5     "
   id="polygon307" />
			</g>
		</g>
		<g
   id="g310">
			<path
   class="st38"
   d="M247.5,111.5c0.2,0,0.3,0.1,0.4,0.2c0.1,0.2,0,0.3-0.3,0.4s-0.5,0-0.6-0.2c-0.1-0.1,0-0.2,0.1-0.3     c-0.1,0-0.2-0.1-0.3-0.2c-0.1-0.2,0-0.3,0.3-0.4c0.2,0,0.5,0,0.6,0.2C247.7,111.4,247.6,111.5,247.5,111.5z M247.6,112     c0.2,0,0.3-0.1,0.2-0.3c-0.1-0.1-0.2-0.2-0.4-0.1c-0.2,0-0.3,0.1-0.2,0.3C247.2,112,247.4,112.1,247.6,112 M246.9,111.4     c0.1,0.1,0.2,0.1,0.4,0.1c0.1,0,0.2-0.1,0.2-0.2c-0.1-0.1-0.2-0.1-0.4-0.1C247,111.2,246.9,111.3,246.9,111.4"
   id="path309" />
		</g>
		<g
   id="g311">
			<path
   class="st38"
   d="M246.4,111.3l0.5,1h-0.1l-0.4-0.7l-0.3,0.1v-0.1l0,0c0.2,0,0.2-0.1,0.2-0.2L246.4,111.3z"
   id="path310" />
		</g>
		<g
   id="g312">
			<path
   class="st38"
   d="M249.7,110.6c0.2,0.1,0.3,0.2,0.4,0.4c0.2,0.3,0.1,0.6-0.2,0.6c-0.2,0.1-0.5,0-0.6-0.2h0.1     c0.1,0.1,0.2,0.1,0.4,0.1s0.2-0.2,0.1-0.5c0,0.1-0.1,0.2-0.3,0.2c-0.3,0.1-0.5,0-0.6-0.2s0-0.4,0.3-0.4     C249.5,110.6,249.6,110.6,249.7,110.6z M249.7,111.2c0.2,0,0.2-0.1,0.2-0.3s-0.2-0.2-0.4-0.2s-0.2,0.2-0.2,0.3     C249.3,111.2,249.5,111.2,249.7,111.2"
   id="path311" />
		</g>
		<g
   id="g313">
			<path
   class="st38"
   d="M214.4,116l0.1,0.1l-0.6,0.1l0.1,0.3c0-0.1,0.1-0.1,0.2-0.1c0.3-0.1,0.5,0.1,0.6,0.2c0.1,0.2,0,0.4-0.3,0.4     c-0.2,0.1-0.5,0-0.6-0.2h0.1c0.1,0.1,0.3,0.2,0.4,0.1c0.2,0,0.2-0.2,0.2-0.3c-0.1-0.1-0.2-0.2-0.4-0.2c-0.1,0-0.2,0.1-0.2,0.2     h-0.1l-0.2-0.6H214.4z"
   id="path312" />
		</g>
		<g
   id="g314">
			<path
   class="st38"
   d="M213.4,116.2l0.5,1h-0.2l-0.4-0.7l-0.3,0.1v-0.1l0,0c0.2,0,0.2-0.1,0.2-0.2L213.4,116.2z"
   id="path313" />
		</g>
		<g
   id="g315">
			<path
   class="st38"
   d="M263.6,111.4c0.3-0.1,0.6,0.1,0.7,0.4c0.2,0.3,0.1,0.5-0.2,0.6c-0.3,0.1-0.6-0.1-0.8-0.4     C263.3,111.7,263.3,111.5,263.6,111.4z M264.1,112.3c0.2,0,0.2-0.2,0.1-0.5s-0.3-0.4-0.5-0.3c-0.2,0-0.2,0.2-0.1,0.5     C263.7,112.2,263.9,112.4,264.1,112.3"
   id="path314" />
		</g>
		<g
   id="g316">
			<path
   class="st38"
   d="M262.6,111.6c0.2-0.1,0.5,0,0.6,0.2c0.1,0.1,0,0.2-0.1,0.4l-0.1,0.1c-0.1,0.1-0.2,0.2-0.1,0.3l0.7-0.1     l0.1,0.1l-0.9,0.2v-0.1c-0.1-0.1-0.1-0.3,0.1-0.4l0.1-0.1c0.1-0.1,0.2-0.2,0.1-0.3c-0.1-0.1-0.2-0.2-0.4-0.1     c-0.2,0-0.2,0.1-0.2,0.3h-0.2C262.2,111.8,262.3,111.7,262.6,111.6z"
   id="path315" />
		</g>
		<g
   id="g317">
			<path
   class="st38"
   d="M278.2,108.3c0.2-0.1,0.5,0,0.6,0.2c0.1,0.1,0,0.2-0.1,0.4l-0.1,0.1c-0.1,0.1-0.2,0.2-0.1,0.3l0.7-0.1     l0.1,0.1l-0.9,0.2l0,0c-0.1-0.1-0.1-0.3,0.1-0.4l0.1-0.1c0.1-0.1,0.2-0.2,0.1-0.3c-0.1-0.1-0.2-0.2-0.4-0.1     c-0.2,0-0.2,0.1-0.2,0.3h-0.2C277.9,108.5,278,108.3,278.2,108.3z"
   id="path316" />
		</g>
		<g
   id="g318">
			<path
   class="st38"
   d="M279.3,108.1l0.5,1h-0.2l-0.4-0.7l-0.3,0.1v-0.1l0,0c0.2,0,0.2-0.1,0.2-0.2L279.3,108.1z"
   id="path317" />
		</g>
		<g
   id="g319">
			<path
   class="st38"
   d="M287.6,107c0.2-0.1,0.5,0,0.6,0.2c0.1,0.1,0,0.2-0.1,0.4l-0.1,0.1c-0.1,0.1-0.2,0.2-0.1,0.3l0.7-0.1     l0.1,0.1l-0.9,0.2l0,0c0-0.1-0.1-0.3,0.1-0.4l0.1-0.1c0.1-0.1,0.2-0.2,0.1-0.3c-0.1-0.1-0.2-0.2-0.4-0.1c-0.2,0-0.2,0.1-0.2,0.3     h-0.1C287.2,107.2,287.3,107.1,287.6,107z"
   id="path318" />
		</g>
		<g
   id="g320">
			<path
   class="st38"
   d="M288.6,106.8c0.2-0.1,0.5,0,0.6,0.2c0.1,0.1,0,0.2-0.1,0.4l-0.1,0.1c-0.1,0.1-0.2,0.2-0.1,0.3l0.7-0.1     l0.1,0.1l-0.9,0.2v-0.1c-0.1-0.1-0.1-0.3,0.1-0.4l0.1-0.1c0.1-0.1,0.2-0.2,0.1-0.3c-0.1-0.1-0.2-0.2-0.4-0.1     c-0.2,0-0.2,0.1-0.2,0.3h-0.1C288.2,107,288.3,106.9,288.6,106.8z"
   id="path319" />
		</g>
		<g
   id="g321">
			<path
   class="st38"
   d="M290.3,107c0.2,0,0.3,0.1,0.4,0.2c0.1,0.2,0,0.3-0.3,0.4l-0.6,0.1l-0.5-1l0.5-0.1c0.3-0.1,0.5,0,0.5,0.2     C290.4,106.9,290.4,106.9,290.3,107z M290.3,107.5c0.2,0,0.2-0.1,0.2-0.2c-0.1-0.1-0.2-0.2-0.4-0.1l-0.4,0.1l0.2,0.3L290.3,107.5      M289.5,106.8l0.2,0.3l0.4-0.1c0.2,0,0.2-0.1,0.2-0.2c-0.1-0.1-0.2-0.1-0.3-0.1L289.5,106.8"
   id="path320" />
		</g>
		<g
   id="g322">
			<path
   class="st38"
   d="M289.9,99.9c0.2-0.1,0.5,0,0.6,0.2c0.1,0.1,0,0.2-0.1,0.4l-0.1,0.1c-0.1,0.1-0.2,0.2-0.1,0.3l0.7-0.1     l0.1,0.1l-1,0.1v-0.1c-0.1-0.1-0.1-0.3,0.1-0.4l0.1-0.1c0.1-0.1,0.2-0.2,0.1-0.3C290.2,100,290.1,99.9,289.9,99.9     c-0.2,0.1-0.3,0.2-0.2,0.4h-0.1C289.6,100.1,289.7,99.9,289.9,99.9z"
   id="path321" />
		</g>
		<g
   id="g323">
			<path
   class="st38"
   d="M290.9,99.7c0.2-0.1,0.5,0,0.6,0.2c0.1,0.1,0,0.2-0.1,0.4l-0.1,0.1c-0.1,0.1-0.2,0.2-0.1,0.3l0.7-0.1     l0.1,0.1l-0.9,0.2v-0.1c-0.1-0.1-0.1-0.3,0.1-0.4l0.1-0.1c0.1-0.1,0.2-0.2,0.1-0.3c-0.1-0.1-0.2-0.2-0.4-0.1     c-0.2,0-0.3,0.1-0.2,0.3h-0.1C290.6,99.9,290.7,99.7,290.9,99.7z"
   id="path322" />
		</g>
		<g
   id="g324">
			<path
   class="st38"
   d="M292.2,99.4l1.1,0.9h-0.2l-0.3-0.3l-0.6,0.1v0.3H292v-1.1L292.2,99.4z M292.2,100.1l0.5-0.1l0,0     c-0.1-0.1-0.3-0.3-0.5-0.4C292.1,99.7,292.2,100,292.2,100.1L292.2,100.1"
   id="path323" />
		</g>
		<g
   id="g325">
			<path
   class="st38"
   d="M319.8,108.8c0.2-0.1,0.5,0,0.6,0.2c0.1,0.1,0,0.2-0.1,0.3c0.1,0,0.3,0.1,0.4,0.2c0.1,0.2,0,0.3-0.3,0.4     s-0.5,0-0.6-0.2h0.2c0.1,0.1,0.2,0.2,0.4,0.2c0.2,0,0.2-0.1,0.2-0.3c-0.1-0.1-0.2-0.2-0.4-0.1h-0.1l-0.1-0.1h0.1     c0.2,0,0.2-0.1,0.2-0.2c-0.1-0.1-0.2-0.1-0.3-0.1c-0.2,0-0.2,0.1-0.2,0.2h-0.2C319.5,109,319.6,108.9,319.8,108.8z"
   id="path324" />
		</g>
		<g
   id="g326">
			<path
   class="st38"
   d="M321.2,108.6l0.1,0.1l-0.6,0.1l0.1,0.3c0-0.1,0.1-0.1,0.2-0.1c0.3-0.1,0.5,0,0.6,0.2s0,0.4-0.3,0.4     c-0.3,0.1-0.5,0-0.6-0.2h0.1c0.1,0.1,0.3,0.2,0.4,0.1c0.2,0,0.2-0.2,0.2-0.3c-0.1-0.1-0.2-0.2-0.4-0.2c-0.1,0-0.2,0.1-0.2,0.2     h-0.1l-0.2-0.6H321.2z"
   id="path325" />
		</g>
		<g
   id="g327">
			<path
   class="st38"
   d="M286.7,81.5c0.2-0.1,0.5,0,0.6,0.2c0.1,0.1,0,0.2-0.1,0.3c0.1,0,0.3,0.1,0.4,0.2c0.1,0.2,0,0.3-0.3,0.4     s-0.5,0-0.6-0.2h0.2c0.1,0.1,0.2,0.2,0.4,0.2c0.2,0,0.2-0.1,0.2-0.3S287.2,82,287,82h-0.1l-0.1-0.1h0.1c0.2,0,0.2-0.1,0.2-0.2     c-0.1-0.1-0.2-0.1-0.4-0.1c-0.1,0-0.2,0.1-0.2,0.2h-0.1C286.4,81.7,286.4,81.5,286.7,81.5z"
   id="path326" />
		</g>
		<g
   id="g328">
			<path
   class="st38"
   d="M285.7,81.7c0.2-0.1,0.5,0,0.6,0.2c0.1,0.1,0,0.2-0.1,0.4l-0.1,0.1c-0.1,0.1-0.2,0.2-0.1,0.3l0.7-0.1     l0.1,0.1l-0.9,0.2v-0.1c-0.1-0.1-0.1-0.3,0.1-0.4l0.1-0.1c0.1-0.1,0.2-0.2,0.1-0.3c-0.1-0.1-0.2-0.2-0.4-0.1     c-0.2,0-0.2,0.1-0.2,0.3h-0.1C285.3,81.9,285.4,81.8,285.7,81.7z"
   id="path327" />
		</g>
		<g
   id="g329">
			<path
   class="st38"
   d="M274.2,82.4h0.2l0.1,0.1h-0.2l0.1,0.2h-0.2l-0.1-0.2l-0.7,0.1l-0.1-0.1l0.3-0.8h0.2L274.2,82.4z M274,82.5     l-0.3-0.5l-0.2,0.6L274,82.5"
   id="path328" />
		</g>
		<g
   id="g330">
			<path
   class="st38"
   d="M272.6,82c0.2-0.1,0.5,0,0.6,0.2c0.1,0.1,0,0.2-0.1,0.4l-0.1,0.1c-0.1,0.1-0.2,0.2-0.1,0.3l0.7-0.1l0.1,0.1     l-0.9,0.2v-0.1c0-0.1-0.1-0.3,0.1-0.4l0.1-0.1c0.1-0.1,0.2-0.2,0.1-0.3c-0.1-0.1-0.2-0.2-0.4-0.1c-0.2,0-0.2,0.1-0.2,0.3h-0.1     C272.2,82.2,272.3,82.1,272.6,82z"
   id="path329" />
		</g>
		<g
   id="g331">
			<path
   class="st38"
   d="M259.3,84.9l0.1,0.1l-0.6,0.1l0.1,0.3c0-0.1,0.1-0.1,0.2-0.1c0.3-0.1,0.5,0,0.6,0.2s0,0.4-0.3,0.4     c-0.2,0.1-0.5,0-0.6-0.2h0.1c0.1,0.1,0.3,0.2,0.4,0.1c0.2,0,0.3-0.2,0.2-0.3c-0.1-0.1-0.2-0.2-0.4-0.2c-0.1,0-0.2,0.1-0.2,0.2     h-0.1l-0.2-0.6H259.3z"
   id="path330" />
		</g>
		<g
   id="g332">
			<path
   class="st38"
   d="M257.9,85.2c0.2-0.1,0.5,0,0.6,0.2c0.1,0.1,0,0.2-0.1,0.4l-0.1,0.1c-0.1,0.1-0.2,0.2-0.1,0.3l0.7-0.1     l0.1,0.1l-0.9,0.2v-0.1c-0.1-0.1-0.1-0.3,0.1-0.4l0.1-0.1c0.1-0.1,0.2-0.2,0.1-0.3s-0.2-0.2-0.4-0.1c-0.2,0-0.2,0.1-0.2,0.3h-0.2     C257.5,85.4,257.6,85.2,257.9,85.2z"
   id="path331" />
		</g>
		<g
   id="g333">
			<path
   class="st38"
   d="M251.9,87c0.2,0,0.3,0.1,0.3,0.2c0.1,0.2,0,0.3-0.3,0.4l-0.6,0.1l-0.5-1l0.5-0.1c0.3-0.1,0.5,0,0.5,0.2     C252,86.8,252,86.9,251.9,87z M251.9,87.4c0.2,0,0.2-0.1,0.2-0.2c-0.1-0.1-0.2-0.2-0.4-0.1l-0.4,0.1l0.2,0.3L251.9,87.4      M251.1,86.7l0.2,0.3l0.4-0.1c0.2,0,0.2-0.1,0.2-0.2c-0.1-0.1-0.2-0.1-0.3-0.1L251.1,86.7"
   id="path332" />
		</g>
		<g
   id="g334">
			<path
   class="st38"
   d="M250.4,87.1c0.3-0.1,0.5,0,0.6,0.2s0,0.4-0.3,0.4c-0.1,0-0.2,0-0.3,0c-0.2-0.1-0.3-0.2-0.4-0.4     c-0.2-0.3-0.1-0.5,0.2-0.6c0.2,0,0.4,0,0.6,0.2h-0.1c-0.1-0.1-0.2-0.1-0.4-0.1s-0.3,0.2-0.1,0.5     C250.2,87.3,250.3,87.2,250.4,87.1z M250.7,87.7c0.2,0,0.2-0.1,0.2-0.3c-0.1-0.1-0.2-0.2-0.4-0.2s-0.2,0.1-0.2,0.3     C250.4,87.7,250.6,87.7,250.7,87.7"
   id="path333" />
		</g>
		<g
   id="g335">
			<path
   class="st38"
   d="M249.2,87c0.2-0.1,0.5,0,0.6,0.2c0.1,0.1,0,0.2-0.1,0.4l-0.1,0.1c-0.1,0.1-0.2,0.2-0.1,0.3l0.7-0.1l0.1,0.1     l-0.9,0.2v-0.1c-0.1-0.1-0.1-0.3,0.1-0.4l0.1-0.1c0.1-0.1,0.2-0.2,0.1-0.3c-0.1-0.1-0.2-0.2-0.4-0.1s-0.2,0.1-0.2,0.3h-0.2     C248.8,87.2,248.9,87.1,249.2,87z"
   id="path334" />
		</g>
		<g
   id="g336">
			<path
   class="st38"
   d="M244.8,95.6c0.3-0.1,0.5,0,0.6,0.2s0,0.4-0.3,0.4c-0.1,0-0.2,0-0.3,0c-0.2-0.1-0.3-0.2-0.4-0.4     c-0.2-0.3-0.1-0.6,0.2-0.6c0.2,0,0.4,0,0.6,0.2h-0.1c-0.1-0.1-0.2-0.1-0.4-0.1s-0.3,0.2-0.1,0.5     C244.5,95.7,244.6,95.6,244.8,95.6z M245.1,96.2c0.2,0,0.2-0.2,0.2-0.3c-0.1-0.1-0.2-0.2-0.4-0.2s-0.3,0.2-0.2,0.3     C244.7,96.1,244.9,96.2,245.1,96.2"
   id="path335" />
		</g>
		<g
   id="g337">
			<path
   class="st38"
   d="M243.5,95.4c0.2-0.1,0.5,0,0.6,0.2c0.1,0.1,0,0.2-0.1,0.4l-0.1,0.1c-0.1,0.1-0.2,0.2-0.1,0.3l0.7-0.1     l0.1,0.1l-0.9,0.2v-0.1c0-0.1-0.1-0.3,0.1-0.4l0.1-0.1c0.1-0.1,0.2-0.2,0.1-0.3c-0.1-0.1-0.2-0.2-0.4-0.1c-0.2,0-0.2,0.1-0.2,0.3     h-0.1C243.1,95.7,243.2,95.5,243.5,95.4z"
   id="path336" />
		</g>
		<g
   id="g338">
			<path
   class="st38"
   d="M245.8,95l1.1,0.9h-0.2l-0.3-0.3l-0.6,0.1V96h-0.2v-1.1L245.8,95z M245.7,95.7l0.5-0.1l0,0     c-0.1-0.1-0.3-0.3-0.5-0.4C245.7,95.3,245.8,95.5,245.7,95.7L245.7,95.7"
   id="path337" />
		</g>
		<g
   id="g339">
			<path
   class="st38"
   d="M237.9,96.7L237.9,96.7c-0.1,0.4-0.1,0.8,0.1,1.1h-0.2C237.6,97.5,237.6,97.2,237.9,96.7l-0.8,0.2l-0.1-0.1     L237.9,96.7z"
   id="path338" />
		</g>
		<g
   id="g340">
			<path
   class="st38"
   d="M236.5,96.9c0.2-0.1,0.5,0,0.6,0.2c0.1,0.1,0,0.2-0.1,0.4l-0.1,0.1c-0.1,0.1-0.2,0.2-0.1,0.3l0.7-0.1     l0.1,0.1l-0.9,0.2V98c-0.1-0.1-0.1-0.3,0.1-0.4l0.1-0.1c0.1-0.1,0.2-0.2,0.1-0.3c-0.1-0.1-0.2-0.2-0.4-0.1     c-0.2,0-0.2,0.1-0.2,0.3h-0.2C236.2,97.1,236.3,97,236.5,96.9z"
   id="path339" />
		</g>
		<g
   id="g341">
			<path
   class="st38"
   d="M227.6,98.8c0.2-0.1,0.5,0,0.6,0.2c0.1,0.1,0,0.2-0.1,0.4l-0.1,0.1c-0.1,0.1-0.2,0.2-0.1,0.3l0.7-0.1     l0.1,0.1l-0.9,0.2v-0.1c0-0.1-0.1-0.3,0.1-0.4l0.1-0.1c0.1-0.1,0.2-0.2,0.1-0.3c-0.1-0.1-0.2-0.2-0.4-0.1c-0.2,0-0.2,0.1-0.2,0.3     h-0.1C227.2,99,227.3,98.9,227.6,98.8z"
   id="path340" />
		</g>
		<g
   id="g342">
			<path
   class="st38"
   d="M229.1,99c0.2,0,0.3,0.1,0.4,0.2c0.1,0.2,0,0.3-0.3,0.4s-0.5,0-0.6-0.2c-0.1-0.1,0-0.2,0.1-0.3     c-0.1,0-0.2-0.1-0.3-0.2c-0.1-0.2,0-0.3,0.3-0.4c0.2,0,0.5,0,0.6,0.2C229.3,98.9,229.2,99,229.1,99z M229.1,99.5     c0.2,0,0.3-0.1,0.2-0.3c-0.1-0.1-0.2-0.2-0.4-0.1c-0.2,0-0.3,0.1-0.2,0.3C228.8,99.5,229,99.6,229.1,99.5 M228.5,98.9     c0.1,0.1,0.2,0.1,0.4,0.1c0.1,0,0.2-0.1,0.2-0.2c-0.1-0.1-0.2-0.1-0.4-0.1C228.5,98.7,228.5,98.8,228.5,98.9"
   id="path341" />
		</g>
		<g
   id="g343">
			<path
   class="st38"
   d="M263.2,97.8c0.2-0.1,0.5,0,0.6,0.2c0.1,0.1,0,0.2-0.1,0.3c0.1,0,0.3,0.1,0.3,0.2c0.1,0.2,0,0.3-0.3,0.4     s-0.5,0-0.6-0.2h0.2c0.1,0.1,0.2,0.2,0.4,0.1c0.2,0,0.2-0.1,0.2-0.3s-0.2-0.2-0.4-0.1h-0.1l-0.1-0.1h0.1c0.2,0,0.2-0.1,0.2-0.2     c-0.1-0.1-0.2-0.1-0.3-0.1c-0.2,0-0.2,0.1-0.2,0.2H263C262.9,98,263,97.8,263.2,97.8z"
   id="path342" />
		</g>
		<g
   id="g344">
			<path
   class="st38"
   d="M264.6,97.5L264.6,97.5c-0.1,0.4-0.1,0.8,0.1,1.1h-0.2c-0.2-0.3-0.2-0.6,0-1l-0.7,0.1l-0.1-0.1L264.6,97.5z     "
   id="path343" />
		</g>
		<g
   id="g345">
			<path
   class="st38"
   d="M332.9,106.1c0.2-0.1,0.5,0,0.6,0.2c0.1,0.1,0,0.2-0.1,0.3c0.1,0,0.3,0.1,0.4,0.2c0.1,0.2,0,0.3-0.3,0.4     s-0.5,0-0.6-0.2h0.1c0.1,0.1,0.2,0.2,0.4,0.2c0.2,0,0.2-0.1,0.2-0.3c-0.1-0.1-0.2-0.2-0.4-0.1h-0.1l-0.1-0.1h0.1     c0.2,0,0.2-0.1,0.2-0.2c-0.1-0.1-0.2-0.1-0.4-0.1c-0.1,0-0.2,0.1-0.2,0.2h-0.2C332.5,106.3,332.6,106.1,332.9,106.1z"
   id="path344" />
		</g>
		<g
   id="g346">
			<path
   class="st38"
   d="M334.6,106.4h0.2l0.1,0.1L334.6,106.4l0.2,0.3h-0.2l-0.1-0.2l-0.7,0.1l-0.1-0.1l0.3-0.8h0.2L334.6,106.4z      M334.5,106.5l-0.3-0.5l-0.2,0.6L334.5,106.5"
   id="path345" />
		</g>
		<g
   id="g347">
			<path
   class="st38"
   d="M129.3,136.2l0.1,0.1l-0.6,0.1l0.1,0.3c0-0.1,0.1-0.1,0.2-0.1c0.3-0.1,0.5,0,0.6,0.2s0,0.4-0.3,0.4     c-0.2,0.1-0.5,0-0.6-0.2h0.1c0.1,0.1,0.3,0.2,0.4,0.1c0.2,0,0.2-0.2,0.2-0.3c-0.1-0.1-0.2-0.2-0.4-0.2c-0.1,0-0.2,0.1-0.2,0.2     h-0.1l-0.2-0.6H129.3z"
   id="path346" />
		</g>
		<g
   id="g348">
			<path
   class="st38"
   d="M121.3,138.6h0.2l0.1,0.1h-0.2l0.1,0.2h-0.2l-0.1-0.2l-0.7,0.1l-0.1-0.1l0.3-0.8h0.2L121.3,138.6z      M121.1,138.6l-0.3-0.5l-0.2,0.6L121.1,138.6"
   id="path347" />
		</g>
	</g>
	<g
   class="st37"
   id="g352">
		<g
   id="g350">
			<path
   class="st38"
   d="M199.2,105.3c0.3-0.1,0.5,0.1,0.6,0.2c0.1,0.2,0,0.4-0.3,0.4c-0.1,0-0.2,0-0.3,0c-0.2-0.1-0.3-0.2-0.4-0.4     c-0.2-0.3-0.1-0.5,0.2-0.6c0.2,0,0.4,0,0.6,0.2h-0.1c-0.1-0.1-0.2-0.1-0.4-0.1s-0.3,0.2-0.1,0.5     C199,105.4,199.1,105.3,199.2,105.3z M199.5,105.9c0.2,0,0.2-0.2,0.2-0.3c-0.1-0.1-0.2-0.2-0.4-0.2s-0.2,0.2-0.2,0.3     C199.1,105.8,199.3,105.9,199.5,105.9"
   id="path349" />
		</g>
		<g
   id="g351">
			<path
   class="st38"
   d="M197.9,105.2c0.2-0.1,0.5,0,0.6,0.2c0.1,0.1,0,0.2-0.1,0.2c0.1,0,0.3,0.1,0.4,0.2c0.1,0.2,0,0.3-0.3,0.4     s-0.5,0-0.6-0.2h0.2c0.1,0.1,0.2,0.2,0.4,0.1c0.2,0,0.2-0.1,0.2-0.3c-0.1-0.1-0.2-0.2-0.4-0.1h-0.1l-0.1-0.1h0.1     c0.2,0,0.2-0.1,0.2-0.2C198.2,105.3,198.1,105.2,197.9,105.2c-0.1,0.1-0.2,0.2-0.1,0.4h-0.2C197.5,105.4,197.6,105.2,197.9,105.2     z"
   id="path350" />
		</g>
	</g>
	<g
   class="st37"
   id="g353">
		<path
   class="st38"
   d="M200.3,104.7l1.1,0.9h-0.2l-0.3-0.3l-0.6,0.1v0.3h-0.2v-1.1L200.3,104.7z M200.2,105.4l0.5-0.1l0,0    c-0.1-0.1-0.3-0.3-0.5-0.4C200.2,105,200.3,105.2,200.2,105.4L200.2,105.4"
   id="path352" />
	</g>
</g>
</svg>
